<?xml version="1.0" encoding="utf-8"?>
<!-- Generator: Adobe Illustrator 23.0.2, SVG Export Plug-In . SVG Version: 6.00 Build 0)  -->
<svg version="1.1" id="Monocromático" xmlns="http://www.w3.org/2000/svg" xmlns:xlink="http://www.w3.org/1999/xlink" x="0px"
	 y="0px" viewBox="0 0 190.5 169.5" style="enable-background:new 0 0 190.5 169.5;" xml:space="preserve">
<style type="text/css">
	.st0{fill:#FFFFFF;}
</style>
<path class="st0" d="M10.2,4.3C15.3,7.6,26.9,18.2,36,30.7c11,15.1,13.5,19.3,17.5,25.8c0.9,1.4,1.6,3.2,2.3,3
	c0.8-0.2,1-1.2,1.5-2.5c1.5-4.2,3.8-14.9,4.3-25.6c0.3-5.8-0.2-13.5-3.7-21.6c0,0-9.7-4.5-23.5-6.4C20.2,1.4,13.2,1.9,10.2,2
	C9.1,2,8.8,2.2,8.8,2.7C8.7,3.2,9.1,3.5,10.2,4.3z M27.5,84.7c2.4,2.3,3.4,3,4,2.6c0.5-0.3,0.4-1.1-0.5-2.7
	c-1.5-2.6-7.5-15.4-7.5-32.4c0-17,0.8-18.8,2.5-27.5C19.4,17.4,10.1,11.1,2.2,9c-0.3,6-0.8,19.9,3.2,34.9
	C9.3,58.9,16.9,74.2,27.5,84.7z M66.5,33.1c-1.3,10.9-4.1,19.8-5.5,23.5c-2.1,5.7-4.7,7.6-4,8.7c0.3,0.4,1.3,0.3,2.5,0
	c3-0.8,14.5-3.3,29.8-10.1c15.3-6.9,21.6-12.6,24.6-15.3c3.1-2.8,3.6-4.9,1.8-6.8c-1.8-1.9-9.1-9.2-20.1-15.7
	C83,9.7,69.9,7.2,68.7,7c-0.7-0.1-2-0.3-2.6,0.2C64.8,8.2,68.6,14.6,66.5,33.1z M128.5,125.3c10.2,5.7,20.6,7.8,33.7,8.6
	c7.8-5.1,13.3-12.4,17.6-20.1c4.3-7.7,7.1-18.3,8.2-25.3c1.1-7.2,1.8-9.8,0.5-10.2c-1.3-0.4-1.5,1.3-3.7,4.9
	c-5.5,9.1-10.3,14.3-18,20.5C156.3,112.3,142.8,119.8,128.5,125.3z M75.9,168h19.9v-5.6H76.5c-1.8,0-3.3-1.5-3.3-3.3v-8.6
	c0-1.8,1.5-3.3,3.3-3.3h19.4v-5.6H75.9c-5.2,0-10.2,2.8-10.2,8.8v8.8C65.8,165.2,70.7,168,75.9,168z M63.8,168v-5.6H44.5
	c-1.8,0-3.3-1.5-3.3-3.3v-1.5h22.6v-5.7H41.2v-1.5c0-1.8,1.5-3.3,3.3-3.3h19.4v-5.6H43.9c-5.2,0-10.2,2.8-10.2,8.8v8.8
	c0,6,4.9,8.8,10.2,8.8H63.8z M143,168v-20.7h13.1v-5.6h-33.8v5.6h13.1V168H143z M168,147.3h19.4v-5.6h-19.9
	c-5.2,0-10.2,2.8-10.2,8.8v8.8c0,6,4.9,8.8,10.2,8.8h19.9v-5.6H168c-1.8,0-3.3-1.5-3.3-3.3v-1.5h22.6v-5.7h-22.6v-1.5
	C164.7,148.8,166.2,147.3,168,147.3z M115.5,149.4l-6.6,6.2l-6.6-6.2h-6.6l10.6,10v8.7h5.3v-8.7l10.6-10H115.5z M11.9,168h19.9v-5.6
	H12.5c-1.8,0-3.3-1.5-3.3-3.3v-8.6c0-1.8,1.5-3.3,3.3-3.3h19.4v-5.6H11.9c-5.2,0-10.2,2.8-10.2,8.8v8.8C1.7,165.2,6.7,168,11.9,168z
	 M147.7,74.4c-0.1,0-0.1,0.1-0.2,0.2c0.9,0.3,1.9,0.5,2.9,0.5c4.6,0,8.4-3.8,8.4-8.4c0-4.6-3.8-8.4-8.4-8.4c-4.6,0-8.4,3.8-8.4,8.4
	c0,0.6,0.1,1.2,0.2,1.7c0.5-0.4,1.1-0.8,1.7-1.2c0.7-0.5,1.5-0.7,2.3-0.7c1.3,0,2.5,0.6,3.3,1.7c1,1.5,1,3.2-0.1,4.6
	C148.9,73.4,148.4,73.9,147.7,74.4z M63.5,68.1c-2.1,0.3-3.4,0.6-3.7,1.5c-0.3,0.9,0.1,1.6,1.2,2.7c10.2,10.2,25.3,17.2,39.2,21.1
	c3.9-1.9,7.9-3.9,12-6.1c6.3-3.4,11.4-6.3,15.9-9.2c-0.8-3.5-1.4-7.5-1.6-12.1c-0.5-9.9,1.2-19.8,1.8-22.5c0.6-2.7,1.4-5.5,0.9-5.7
	c-0.8-0.3-1.6,0.8-3.2,2.2c-4,3.2-15.2,12.3-33.2,19.4C79.7,64.6,68.9,67.3,63.5,68.1z M136.1,97.5c0.7-0.7-0.5-1.9-2-4.3
	c-1.1-1.8-2.4-4.2-3.6-7.4c-4.2,2.5-8.9,5.2-14.2,8.1c-1.4,0.7-2.7,1.5-4.1,2.2c1.3,0.2,2.5,0.4,3.8,0.5
	C132.6,98.4,135.4,98.2,136.1,97.5z M72.6,86.1c-0.7,0.5-0.1,2.1,3.1,7c1.9,2.9,3.3,4.5,6.6,8.2c3.8-1.5,7.8-3.1,11.9-5
	c-7-2.7-12.9-5.7-16.9-7.9C74,86.5,73.3,85.5,72.6,86.1z M88.2,107.4c3.7,3.3,9.8,7.8,15.3,11c3.7,2.2,11.2,6.3,14.5,6.3
	c2.1,0,4-0.8,10-3.2c6.5-2.6,15.8-7.4,22.3-12.3c2.5-1.9,7.2-5.7,6.9-6.2c-0.2-0.3-1.9,0.2-4.1,0.5c-5.2,0.8-18.4,2.3-35.3-0.6
	c-4.6-0.8-8.9-1.9-13.1-3.1C99.1,102.6,93.6,105.1,88.2,107.4z M115.2,92c12.3-6.6,21.3-12.4,30.3-18.7c0.9-0.8,1.7-1.3,2.2-1.9
	c0.5-0.7,0.5-1.3,0-2c-0.5-0.7-1.6-1.1-2.6-0.4c-0.8,0.5-1.8,1.3-2.1,1.5c-9.6,7-17.1,11.9-29.9,18.7
	c-35.2,18.8-64.9,26.3-68.7,18.8c-2.6-5.1,7-15.7,23.6-27.4c-0.8-0.5-1.5-1-2.3-1.6c-21.7,14.7-35,28.5-31.5,35
	C39.3,123.2,77.4,112.5,115.2,92z M162.3,46.8c1,2.5-0.9,6.7-5.2,11.8c1.3,1.1,2.4,2.4,3,4c9.9-9.1,14.6-16.8,12.8-20.9
	c-2.7-6.1-20.2-3.8-42.9,4.5c-0.2,0.9-0.3,1.9-0.5,3C147.1,43.1,160.3,41.8,162.3,46.8z"/>
</svg>
