<?xml version="1.0" encoding="utf-8"?>
<!-- Generator: Adobe Illustrator 24.2.0, SVG Export Plug-In . SVG Version: 6.00 Build 0)  -->
<svg version="1.1" id="OBJECTS" xmlns="http://www.w3.org/2000/svg" xmlns:xlink="http://www.w3.org/1999/xlink" x="0px" y="0px"
	 viewBox="0 0 441.42 307.91" style="enable-background:new 0 0 441.42 307.91;" xml:space="preserve">
<style type="text/css">
	.st0{opacity:0.77;fill:#D8EAAC;enable-background:new    ;}
	.st1{fill:#A63496;}
	.st2{fill:#F7BC35;}
	.st3{fill:#FA7268;}
	.st4{fill:#00CAC0;}
	.st5{fill:#0E6D4B;}
	.st6{fill:#FFFFFF;}
	.st7{fill:#20222C;}
	.st8{fill:#EFAC92;}
	.st9{enable-background:new    ;}
	.st10{fill:#FFFFFF;stroke:#000000;stroke-width:6.279205e-03;stroke-miterlimit:10;}
	.st11{fill:#F1AD8E;}
	.st12{fill:#DD8C71;}
	.st13{fill:#463440;}
	.st14{fill:#F06666;}
	.st15{fill:#634E5F;}
	.st16{fill:url(#XMLID_4_);}
	.st17{fill:url(#XMLID_5_);}
	.st18{fill:url(#XMLID_6_);}
	.st19{fill:url(#XMLID_7_);}
	.st20{fill:#DADADA;}
	.st21{fill:#F6F6F6;}
</style>
<g id="XMLID_452_">
	<g id="XMLID_450_">
		<ellipse id="XMLID_64_" class="st0" cx="225.81" cy="294.7" rx="215.62" ry="10.21"/>
		<g>
			<path class="st1" d="M99.05,277.07c-10.61,10.36-23.67,15.54-39.19,15.54c-15.52,0-28.58-5.18-39.19-15.54
				c-10.61-10.36-15.92-23.25-15.92-38.66c0-15.41,5.3-28.3,15.92-38.66c10.61-10.36,23.67-15.54,39.19-15.54
				c15.51,0,28.58,5.18,39.19,15.54c10.61,10.36,15.92,23.25,15.92,38.66C114.97,253.82,109.66,266.71,99.05,277.07z M91.09,238.48
				c0-9.36-3-17.34-9.01-23.95c-6.01-6.61-13.39-9.91-22.15-9.91c-8.76,0-16.14,3.3-22.15,9.91c-6.01,6.61-9.01,14.59-9.01,23.95
				c0,9.36,3,17.32,9.01,23.87c6.01,6.56,13.39,9.83,22.15,9.83c8.76,0,16.14-3.28,22.15-9.83
				C88.09,255.8,91.09,247.84,91.09,238.48z"/>
			<path class="st2" d="M220.07,277.07c-10.61,10.36-23.67,15.54-39.19,15.54c-15.52,0-28.58-5.18-39.19-15.54
				c-10.61-10.36-15.92-23.25-15.92-38.66c0-15.41,5.3-28.3,15.92-38.66c10.61-10.36,23.67-15.54,39.19-15.54
				c15.51,0,28.58,5.18,39.19,15.54c10.61,10.36,15.91,23.25,15.91,38.66C235.98,253.82,230.67,266.71,220.07,277.07z
				 M212.11,238.48c0-9.36-3-17.34-9.01-23.95c-6.01-6.61-13.39-9.91-22.15-9.91c-8.76,0-16.14,3.3-22.15,9.91
				c-6.01,6.61-9.01,14.59-9.01,23.95c0,9.36,3,17.32,9.01,23.87c6.01,6.56,13.39,9.83,22.15,9.83c8.76,0,16.14-3.28,22.15-9.83
				C209.1,255.8,212.11,247.84,212.11,238.48z"/>
			<path class="st3" d="M325.09,195.99c7.36,6.26,11.04,15.87,11.04,28.83c0,12.96-3.78,22.45-11.34,28.45
				c-7.56,6.01-19.09,9.01-34.61,9.01h-13.96v29.28h-23.42V186.61h37.08C305.99,186.61,317.73,189.74,325.09,195.99z M307.9,237.28
				c2.8-3.15,4.2-7.76,4.2-13.81c0-6.05-1.83-10.36-5.48-12.91c-3.66-2.55-9.33-3.83-17.04-3.83h-13.36v35.28h15.77
				C299.79,242.01,305.09,240.43,307.9,237.28z"/>
			<path class="st4" d="M375.98,207.55c-2.25,1.85-3.38,4.3-3.38,7.36c0,3.05,1.38,5.48,4.13,7.28c2.75,1.8,9.11,3.93,19.07,6.38
				c9.96,2.45,17.69,6.13,23.2,11.04c5.5,4.91,8.26,12.06,8.26,21.47c0,9.41-3.53,17.04-10.58,22.9s-16.34,8.78-27.85,8.78
				c-16.62,0-31.58-6.16-44.89-18.47l13.96-17.12c11.31,9.91,21.77,14.86,31.38,14.86c4.3,0,7.68-0.92,10.13-2.78
				c2.45-1.85,3.68-4.35,3.68-7.51c0-3.15-1.3-5.65-3.9-7.51c-2.6-1.85-7.76-3.73-15.46-5.63c-12.21-2.9-21.15-6.68-26.8-11.34
				c-5.66-4.65-8.48-11.96-8.48-21.92c0-9.96,3.58-17.64,10.74-23.05c7.16-5.41,16.09-8.11,26.8-8.11c7,0,14.01,1.2,21.02,3.6
				c7,2.4,13.11,5.81,18.32,10.21l-11.86,17.12c-9.11-6.91-18.52-10.36-28.23-10.36C381.31,204.77,378.24,205.7,375.98,207.55z"/>
		</g>
		<path id="XMLID_308_" class="st5" d="M400.76,299.55c0,0-1.42-2.95-5.32-2.57c-3.9,0.38-2.88-3.14-7.25-3.71
			c-4.37-0.57-5.16,0.72-10.47-3.74c-5.31-4.46-9.73,3.51-13.68,0.2c-3.95-3.31-6.79-8.63-13.48-6.57c-6.7,2.06-3.88,7.34-7.84,9.32
			c-3.97,1.99-8.1,2.63-9.78,7.16L400.76,299.55z"/>
		<path id="XMLID_451_" class="st5" d="M170.43,294.6c0,0-1.42-2.95-5.32-2.57c-3.9,0.38-2.88-3.14-7.25-3.71
			c-4.37-0.57-5.16,0.72-10.47-3.74c-5.31-4.46-9.73,3.51-13.68,0.2c-3.95-3.31-6.79-8.63-13.48-6.57c-6.7,2.06-3.88,7.34-7.84,9.32
			c-3.97,1.99-8.1,2.63-9.78,7.16L170.43,294.6z"/>
	</g>
	<g id="XMLID_445_">
		<g id="XMLID_417_">
			<g id="XMLID_84_">
				<path id="XMLID_92_" d="M189.48,244.4l-3.39,3.21c0,0-4.87,5.01-7.83,4.6c-2.96-0.41,3.76-8.28,4.26-8.64
					c0.49-0.36,4.57-5.21,5.56-5.65c1-0.44,0.92,0.16,3.05,2.72C191.14,240.65,191.68,242.32,189.48,244.4z"/>
				<path id="XMLID_91_" class="st6" d="M199.33,229.24l-3.85,4.27c-0.78,0.86-2.13,0.9-2.95,0.07l0,0
					c-0.75-0.75-0.79-1.95-0.09-2.75l4.61-5.33L199.33,229.24z"/>
				<path id="XMLID_90_" class="st6" d="M189.23,188.08l-0.47,4.46c-0.42,1.09-3.24,2.51-4.3,2.04l-1.71-0.77l3-8.41L189.23,188.08z
					"/>
				<path id="XMLID_89_" d="M188.75,192.54c0,0,2.35,3.09,1.18,5.61c-1.17,2.52-19.33-0.53-19.33-0.53s-0.64-0.46,0.57-0.88
					l8.72-2.61c0,0,3.72-1.72,5.57-1.3C187,193.18,188.75,192.54,188.75,192.54z"/>
				<path id="XMLID_86_" class="st6" d="M193.72,237.87l-3.38,3.41l-0.79-0.02c-1.18-0.02-2.09-1.05-1.97-2.22l0,0l2.68-4.13
					L193.72,237.87z"/>
				<path id="XMLID_85_" class="st7" d="M200.86,139.08c5.59,3.32,21.96,14.7,30.39,30.96c6.19,11.94,37.39,30.6,37.39,30.6
					s1.53,20.45-22.51,17.83c-24.04-2.63-26.08,3.01-32.23,7.13c-4.87,3.26-14.41,8.53-19.15,12c-1.33,0.97-3.19,0.68-4.12-0.68
					l-0.03-0.04c-0.58-0.85-0.67-1.95-0.22-2.88c3.48-7.23,13.31-27.53,15.15-29.95c2.25-2.95,20.72-9.74,20.72-9.74
					s-19.57-15.03-23.97-26.47c0,0-8.2,10.79-9.58,14.88c-0.57,1.68-1.39,4.08-2.17,6.34c-2.05-0.35-4.14-0.44-6.22-0.55
					c0.2-8.35,1.02-32.26,4.03-40.85C192.01,137.16,196.65,136.58,200.86,139.08z"/>
			</g>
			<path id="XMLID_37_" class="st5" d="M226.47,162.35c0,0,9.56,13.71,8.92,23.06c-1.27,18.43,4.42,26.15,10.2,29.67
				c4.06,2.47,11.68,2.67,27.35-7.76c4.5-1.37,11.16-3.63,18.89-7.15c14.88-6.77,22.32-10.16,27.76-17.62
				c8.45-11.6,10.67-30.97,1.35-41.07c-5.08-5.5-12.1-6.64-15.07-7.08c-20.17-2.99-30.13,14.03-62.03,23.9
				C236.49,160.57,230.32,161.74,226.47,162.35z"/>
			<g id="XMLID_1_">
				<path id="XMLID_141_" class="st8" d="M314.9,179.2l23.53,56.9l4.52,0.35l-11.13-61.37c0,0-6.3,3.7-7.77,3.73
					c-0.46,0.01-0.72,0.02-0.94,0.01c-1.44-0.06-2.36-0.05-3.62-0.21c-0.36-0.05-0.74,0.03-1.11,0.01
					C316.55,178.52,314.9,179.2,314.9,179.2z"/>
				<path id="XMLID_140_" class="st8" d="M345.83,235.37c0,0,12.95,3.61,13.89,4.39c0.94,0.78-0.01,1.94-2.2,1.2
					c-2.19-0.74-9.02-2.41-9.02-2.41s10.64,4.03,10.91,4.8c0.27,0.77-0.48,1.63-1.87,0.93c-1.39-0.7-8.66-3-8.66-3
					s5.87,3.07,6.93,4.08c1.06,1.01-1.02,1.07-2.28,0.32c-1.25-0.75-6.27-3.28-6.27-3.28s3.67,3.59,3.84,4.4
					c0.17,0.81-0.53,0.82-1.07,0.46c-0.54-0.36-4.68-4.52-4.68-4.52s-5.4-1.24-6.79-4.57c-1.39-3.33,0.26-4.69,0.83-4.72
					c0.58-0.04,10.83-1.01,12.34-0.59c1.51,0.42,0.46,2.3-2.09,2.26C347.1,235.08,345.4,234.68,345.83,235.37z"/>
			</g>
			<g id="XMLID_87_">
				<path id="XMLID_109_" class="st8" d="M298.6,125l-53.9-29.75l-3.75,2.55l47.01,40.99c0,0,2.61-6.82,3.74-7.76
					c0.35-0.29,0.55-0.46,0.73-0.59c1.16-0.85,1.87-1.44,2.96-2.1c0.31-0.19,0.56-0.48,0.86-0.7C297.73,126.56,298.6,125,298.6,125z
					"/>
				<path id="XMLID_108_" class="st8" d="M245.93,92.47c0,0,8.51-10.4,8.84-11.58c0.32-1.18-1.12-1.58-2.49,0.28
					c-1.37,1.86-5.99,7.15-5.99,7.15s6.38-9.41,6.17-10.2c-0.22-0.79-1.33-1.06-2.07,0.32c-0.74,1.38-5.35,7.43-5.35,7.43
					s3.04-5.89,3.33-7.33c0.29-1.43-1.45-0.28-2.04,1.05c-0.59,1.33-3.24,6.29-3.24,6.29s0.94-5.05,0.61-5.81
					c-0.33-0.76-0.9-0.37-1.14,0.23c-0.24,0.6-1.23,6.38-1.23,6.38s-3.71,4.12-2.93,7.64c0.78,3.52,2.9,3.69,3.4,3.38
					c0.5-0.3,9.44-5.4,10.43-6.62c0.99-1.22-0.95-2.15-3.01-0.64C247.14,91.98,245.98,93.28,245.93,92.47z"/>
			</g>
			<polygon id="XMLID_38_" class="st5" points="322.62,142.22 290.22,117.89 274.03,133.28 277,138.39 			"/>
			<polygon id="XMLID_258_" class="st5" points="325.85,153.67 336.13,186.97 319.56,195.85 312.89,183.15 			"/>
			<g>
				<path class="st6" d="M321.19,176.85c-0.26,0.13-0.58,0.02-0.7-0.24s-0.02-0.58,0.24-0.7c0.26-0.13,0.58-0.02,0.7,0.24
					C321.56,176.42,321.45,176.73,321.19,176.85z"/>
				<path class="st6" d="M320.69,166.62c0.03-0.01,0.04,0.01,0.08,0.07c0.09,0.17,0.3,0.54,0.58,1.4c0.28,0.83,0.29,1.5,0.29,1.5
					c-0.36,0.42-0.78,0.66-1.12,0.8c-0.62,0.27-1.29,0.43-1.56,0.46c-0.09,0.01-0.15,0.02-0.18-0.02c-0.03-0.03,0.05-0.12,0.11-0.21
					c0.26-0.41,0.43-0.65,0.98-1.7c0.46-0.86,0.73-1.81,0.79-2.18C320.66,166.66,320.66,166.63,320.69,166.62z"/>
				<path class="st6" d="M320.16,166.43c0.1,0.51,0,1.2-0.23,1.78c-0.54,0.15-0.66,0.15-1.62,0.61s-1.52,1.16-1.63,1.31
					c-0.06,0.1-0.11,0.12-0.14,0.1c-0.04-0.02-0.03-0.1,0.04-0.3c0.3-0.89,0.96-1.74,1.69-2.38
					C319.01,166.92,319.81,166.57,320.16,166.43z"/>
				<path class="st6" d="M322.01,169.99c0.04,0.02,0.07,0.1,0.08,0.14c0.02,0.07,0.23,0.88,0.15,1.8c-0.07,0.8-0.28,1.41-0.34,1.57
					s-0.19,0.18-0.43,0.08c-0.23-0.1-0.73-0.3-1.54-0.97c-0.81-0.68-1.27-1.26-1.4-1.41c-0.05-0.06-0.08-0.11-0.07-0.14
					c0.04-0.07,0.22,0.03,0.6-0.01c0.25-0.02,0.83-0.11,1.48-0.33C321.66,170.33,321.92,169.94,322.01,169.99z"/>
				<path class="st6" d="M321.99,174.39c0,0.03-0.18,0.07-0.35,0.11s-0.77,0.22-1.32,0.51c-0.77,0.42-1.14,0.9-1.32,1.17
					c-0.09,0.15-0.13,0.25-0.19,0.23s-0.15-0.17-0.5-1.16c-0.34-0.98-0.54-2.57-0.13-3.77c0.03-0.09,0.06-0.13,0.12-0.14
					s0.11,0.06,0.19,0.17c0.19,0.28,0.64,0.82,1.29,1.41c0.89,0.82,1.71,1.21,2.01,1.34C321.91,174.33,322,174.34,321.99,174.39z"/>
				<path class="st6" d="M317.73,172.51c0.05,0.03,0.01,0.09,0,0.33c-0.03,0.57-0.02,1.61,0.28,2.69c0.3,1.03,0.75,1.74,0.93,2.01
					c0.08,0.12,0.15,0.2,0.14,0.22c-0.02,0.03-0.36-0.13-0.54-0.22c-0.45-0.23-0.98-0.63-1.31-0.92c-0.3-0.27-0.4-0.36-0.45-0.48
					c-0.09-0.19-0.06-0.72-0.04-0.99c0.04-0.51,0.17-1.13,0.27-1.37c0.21-0.52,0.26-0.65,0.4-0.89
					C317.61,172.56,317.68,172.49,317.73,172.51z"/>
				<path class="st6" d="M321.34,178.84c0.01,0.08-0.15,0.12-0.59,0.25c-0.43,0.13-1.1,0.26-1.65,0.23s-1.11-0.15-1.62-0.44
					c-0.31-0.76-0.48-1.41-0.44-2.14c0.7,0.66,1.5,1.21,2.26,1.57c0.56,0.26,0.99,0.39,1.65,0.46
					C321.22,178.79,321.33,178.75,321.34,178.84z"/>
				<g class="st9">
					<path class="st6" d="M310.73,171.39c0.21-0.1,0.38-0.01,0.46,0.16c0.03,0.06,0.05,0.14,0.05,0.2l-0.13,0.03
						c0-0.05-0.01-0.11-0.03-0.15c-0.05-0.1-0.14-0.14-0.27-0.08s-0.14,0.17-0.1,0.26c0.02,0.05,0.06,0.1,0.1,0.12l-0.1,0.07
						c-0.06-0.04-0.1-0.1-0.13-0.17C310.51,171.68,310.52,171.49,310.73,171.39z"/>
					<path class="st6" d="M310.98,172.09c0.15-0.07,0.26-0.03,0.33,0.12c0.07,0.15,0.04,0.26-0.11,0.33
						c-0.16,0.08-0.26,0.02-0.33-0.12C310.8,172.29,310.82,172.17,310.98,172.09z M311.13,172.4c0.09-0.04,0.1-0.09,0.08-0.14
						s-0.07-0.07-0.16-0.02c-0.08,0.04-0.1,0.09-0.08,0.14C310.99,172.42,311.04,172.44,311.13,172.4z"/>
					<path class="st6" d="M311.68,172.54l0.07,0.15l-0.6,0.29l-0.07-0.15L311.68,172.54z"/>
					<path class="st6" d="M311.47,173.57c-0.05-0.04-0.09-0.1-0.12-0.16c-0.05-0.11-0.06-0.26,0.1-0.34c0.18-0.09,0.28,0,0.34,0.12
						c0.06,0.12,0.04,0.23-0.09,0.3c-0.01,0.01-0.03,0.01-0.03,0.02l-0.13-0.28l-0.01,0.01c-0.07,0.03-0.08,0.09-0.05,0.16
						c0.02,0.04,0.06,0.08,0.09,0.13L311.47,173.57z M311.65,173.33c0.06-0.03,0.07-0.07,0.05-0.11c-0.02-0.04-0.06-0.06-0.12-0.04
						L311.65,173.33z"/>
					<path class="st6" d="M312.06,173.77c0.04,0.09,0.04,0.14,0.03,0.18l0,0.01c0.03-0.01,0.05-0.02,0.08,0.03
						c0.01,0.02,0.02,0.05,0.02,0.07l-0.07,0.03c-0.01-0.02-0.01-0.03-0.01-0.04c-0.02-0.03-0.04-0.03-0.06-0.02
						c-0.01,0.01-0.02,0.02-0.03,0.02c-0.09,0.04-0.17-0.01-0.22-0.13c0-0.01-0.01-0.02-0.01-0.03c-0.02-0.02-0.05-0.04-0.08-0.03
						c-0.02,0.01-0.02,0.04-0.01,0.06l0.06,0.13c0.05,0.11,0.04,0.19-0.04,0.23c-0.12,0.06-0.23-0.1-0.28-0.21
						c-0.03-0.07-0.09-0.21,0.01-0.26c0.06-0.03,0.1,0.01,0.13,0.03l0.01,0c-0.01-0.05,0.01-0.07,0.03-0.08
						c0.05-0.02,0.1,0.02,0.14,0.05l0.01,0c-0.01-0.06,0.01-0.12,0.07-0.15C311.92,173.59,312,173.65,312.06,173.77z M311.61,173.96
						c-0.01-0.01-0.04-0.05-0.08-0.03c-0.04,0.02-0.02,0.07,0,0.11c0.02,0.05,0.07,0.09,0.11,0.07c0.02-0.01,0.03-0.03,0.01-0.07
						C311.66,174.04,311.61,173.96,311.61,173.96z M311.86,173.87c0.02,0.04,0.05,0.05,0.1,0.03c0.04-0.02,0.06-0.06,0.04-0.1
						c-0.02-0.04-0.06-0.05-0.1-0.03C311.86,173.79,311.84,173.83,311.86,173.87z"/>
					<path class="st6" d="M312.54,174.17c0.02,0.05,0.01,0.09-0.04,0.11c-0.05,0.02-0.09,0-0.11-0.04
						c-0.02-0.05-0.01-0.09,0.04-0.11C312.46,174.11,312.51,174.12,312.54,174.17z M312.27,174.21l0.07,0.15l-0.42,0.21l-0.07-0.15
						L312.27,174.21z"/>
					<path class="st6" d="M312.21,174.64c0.15-0.07,0.26-0.03,0.33,0.12c0.07,0.15,0.04,0.26-0.11,0.33
						c-0.16,0.08-0.26,0.02-0.33-0.12C312.04,174.85,312.05,174.72,312.21,174.64z M312.36,174.95c0.09-0.04,0.1-0.09,0.08-0.14
						c-0.02-0.05-0.07-0.07-0.16-0.02c-0.08,0.04-0.1,0.09-0.08,0.14C312.23,174.98,312.28,174.99,312.36,174.95z"/>
					<path class="st6" d="M312.38,175.55c-0.03-0.06-0.05-0.14-0.05-0.18l0.1-0.03c0,0.05,0.02,0.12,0.04,0.17
						c0.02,0.03,0.04,0.06,0.07,0.04c0.06-0.03-0.09-0.24,0.07-0.31c0.1-0.05,0.18,0.02,0.23,0.13c0.03,0.06,0.04,0.13,0.05,0.16
						l-0.1,0.03c-0.01-0.04-0.02-0.1-0.04-0.14c-0.02-0.03-0.04-0.05-0.06-0.04c-0.06,0.03,0.08,0.23-0.07,0.31
						C312.52,175.73,312.43,175.65,312.38,175.55z"/>
					<path class="st6" d="M312.92,176.13c0.16-0.08,0.28-0.02,0.33,0.1c0.02,0.04,0.02,0.08,0.03,0.1l0.19-0.09l0.07,0.14l-0.6,0.29
						l-0.06-0.12l0.04-0.04l0-0.01c-0.05-0.01-0.1-0.04-0.12-0.09C312.74,176.3,312.81,176.18,312.92,176.13z M313,176.46l0.18-0.08
						c0-0.02,0-0.05-0.01-0.07c-0.03-0.07-0.1-0.06-0.17-0.03c-0.07,0.03-0.1,0.09-0.08,0.13
						C312.93,176.43,312.97,176.45,313,176.46z"/>
					<path class="st6" d="M313.25,177.26c-0.05-0.04-0.09-0.1-0.12-0.16c-0.05-0.11-0.06-0.26,0.1-0.34c0.18-0.09,0.28,0,0.34,0.12
						c0.06,0.12,0.04,0.23-0.09,0.3c-0.01,0.01-0.03,0.01-0.03,0.02l-0.13-0.28l-0.01,0.01c-0.07,0.03-0.08,0.09-0.05,0.16
						c0.02,0.04,0.06,0.08,0.09,0.13L313.25,177.26z M313.44,177.02c0.06-0.03,0.07-0.07,0.05-0.11c-0.02-0.04-0.06-0.06-0.12-0.04
						L313.44,177.02z"/>
					<path class="st6" d="M314.07,177.5l0.17,0.36l-0.11,0.05l-0.1-0.21l-0.13,0.06l0.08,0.16l-0.11,0.04l-0.07-0.14l-0.14,0.07
						l0.1,0.21l-0.11,0.05l-0.18-0.36L314.07,177.5L314.07,177.5z"/>
					<path class="st6" d="M313.81,178.49c-0.03-0.06-0.05-0.14-0.05-0.18l0.1-0.03c0,0.05,0.02,0.12,0.04,0.17
						c0.02,0.03,0.04,0.06,0.07,0.04c0.06-0.03-0.09-0.24,0.07-0.31c0.1-0.05,0.18,0.02,0.23,0.13c0.03,0.06,0.04,0.13,0.05,0.16
						l-0.1,0.03c-0.01-0.04-0.02-0.1-0.04-0.14c-0.02-0.03-0.04-0.05-0.06-0.04c-0.06,0.03,0.08,0.23-0.07,0.31
						C313.94,178.67,313.86,178.6,313.81,178.49z"/>
					<path class="st6" d="M314.41,178.64l0.03,0.07l0.13-0.03l0.05,0.11l-0.11,0.05l0.06,0.13l-0.1,0.04l-0.06-0.12l-0.16,0.08
						c-0.03,0.02-0.05,0.03-0.03,0.07c0.01,0.02,0.03,0.05,0.06,0.07l-0.1,0.07c-0.04-0.05-0.08-0.09-0.1-0.14
						c-0.05-0.1-0.02-0.16,0.09-0.21l0.19-0.09l-0.03-0.07L314.41,178.64L314.41,178.64z"/>
					<path class="st6" d="M314.45,179.8l-0.06-0.12l0.04-0.04l0-0.01c-0.06-0.02-0.11-0.06-0.13-0.11
						c-0.04-0.08-0.01-0.17,0.09-0.22l0.28-0.13l0.07,0.15l-0.25,0.12c-0.05,0.02-0.07,0.06-0.05,0.1c0.01,0.03,0.05,0.05,0.08,0.06
						l0.29-0.14l0.07,0.15L314.45,179.8C314.45,179.8,314.45,179.8,314.45,179.8z"/>
					<path class="st6" d="M314.75,179.88c0.16-0.08,0.28-0.02,0.33,0.1c0.02,0.05,0.02,0.08,0.03,0.1l0.19-0.09l0.07,0.14l-0.6,0.29
						l-0.06-0.12l0.04-0.04l0-0.01c-0.05-0.01-0.1-0.04-0.13-0.1C314.56,180.05,314.63,179.94,314.75,179.88z M314.82,180.22
						l0.18-0.08c0-0.02,0-0.05-0.01-0.07c-0.03-0.07-0.1-0.06-0.17-0.03c-0.07,0.03-0.1,0.09-0.08,0.13
						C314.75,180.19,314.79,180.21,314.82,180.22z"/>
					<path class="st6" d="M315.54,180.38c0.02,0.05,0.01,0.09-0.04,0.11c-0.05,0.02-0.09,0-0.11-0.04
						c-0.02-0.05-0.01-0.09,0.04-0.11C315.47,180.31,315.52,180.33,315.54,180.38z M315.28,180.42l0.07,0.15l-0.42,0.21l-0.07-0.15
						L315.28,180.42z"/>
					<path class="st6" d="M315.22,180.85c0.15-0.07,0.26-0.03,0.33,0.12c0.07,0.15,0.04,0.26-0.11,0.33
						c-0.16,0.08-0.26,0.02-0.33-0.12C315.05,181.05,315.06,180.93,315.22,180.85z M315.37,181.16c0.09-0.04,0.1-0.09,0.08-0.14
						c-0.02-0.05-0.07-0.07-0.16-0.02c-0.08,0.04-0.1,0.09-0.08,0.14C315.24,181.19,315.29,181.2,315.37,181.16z"/>
					<path class="st6" d="M315.39,181.75c-0.03-0.06-0.05-0.14-0.05-0.18l0.1-0.03c0,0.05,0.02,0.12,0.04,0.17
						c0.02,0.03,0.04,0.06,0.07,0.04c0.06-0.03-0.09-0.24,0.07-0.31c0.1-0.05,0.18,0.02,0.23,0.13c0.03,0.06,0.04,0.13,0.05,0.16
						l-0.1,0.03c-0.01-0.04-0.02-0.1-0.04-0.14c-0.02-0.03-0.04-0.05-0.06-0.04c-0.06,0.03,0.08,0.23-0.07,0.31
						C315.52,181.93,315.44,181.86,315.39,181.75z"/>
				</g>
				<path class="st6" d="M315.82,177.36l0.36,0.74l-1.17,0.57l0.21,0.43l1.17-0.57l0.36,0.74l0.32-0.15l-0.93-1.91L315.82,177.36
					L315.82,177.36z M312.34,170.63l-0.5,0.24c-0.34,0.16-0.36,0.52-0.22,0.82l0.54,1.12l0.32-0.15l-0.53-1.09
					c-0.05-0.1-0.01-0.23,0.1-0.28l0.49-0.24c0.1-0.05,0.23-0.01,0.28,0.1l0.53,1.1l0.32-0.15l-0.54-1.12
					C312.97,170.67,312.68,170.47,312.34,170.63z M313.81,174.91l0.49-0.24c0.1-0.05,0.23-0.01,0.28,0.1l0.53,1.1l0.32-0.15
					l-0.54-1.12c-0.14-0.29-0.44-0.5-0.78-0.34l-0.5,0.24c-0.34,0.16-0.36,0.52-0.22,0.82l0.54,1.12l0.32-0.15l-0.53-1.1
					C313.67,175.08,313.71,174.96,313.81,174.91z M313.22,172.44l-0.5,0.24c-0.34,0.16-0.36,0.52-0.22,0.82l0.54,1.12l0.32-0.15
					l-0.53-1.09c-0.05-0.1-0.01-0.23,0.1-0.28l0.08-0.04l0.62,1.28l0.32-0.16l-0.62-1.28l0.08-0.04c0.1-0.05,0.23-0.01,0.28,0.1
					l0.53,1.1l0.32-0.15l-0.54-1.12C313.85,172.48,313.56,172.27,313.22,172.44z M317.08,179.94l0.53,1.1l0.32-0.15l-0.54-1.12
					c-0.14-0.29-0.44-0.5-0.78-0.34l-0.5,0.24c-0.34,0.16-0.36,0.52-0.22,0.82l0.54,1.12l0.32-0.15l-0.53-1.1
					c-0.05-0.1-0.01-0.23,0.1-0.28l0.08-0.04l0.62,1.28l0.32-0.16l-0.62-1.28l0.08-0.04C316.91,179.79,317.03,179.84,317.08,179.94z
					 M314.99,176.83l0.17-0.54l-0.18-0.37l-0.27,0.87l-0.49,0.24l0.15,0.3l0.49-0.24l0.86,0.33l-0.18-0.38L314.99,176.83z"/>
				<path class="st10" d="M320.65,176.44"/>
				<path class="st6" d="M320.68,176.15c-0.06-0.03-0.12-0.07-0.14-0.08c-0.66-0.35-1.14-0.64-1.88-1.18
					c-2.03-1.47-3.26-2.95-2.94-3.37c0.23-0.3,1.13-0.02,2.31,0.65c0.01-0.06,0.02-0.11,0.03-0.17c-1.47-0.87-2.68-1.28-2.96-0.89
					c-0.38,0.53,1.27,2.39,3.46,3.97c0.71,0.51,1.28,0.86,1.89,1.2c0.07,0.03,0.12,0.06,0.17,0.07c0.05,0.01,0.09-0.01,0.11-0.05
					C320.76,176.26,320.74,176.19,320.68,176.15z M322.99,176.96c0.28-0.33-0.38-1.31-1.54-2.41c-0.05,0.02-0.12,0.04-0.18,0.06
					c0.89,0.87,1.38,1.63,1.14,1.9c-0.13,0.14-0.47,0.13-0.94-0.01c-0.02,0.1-0.07,0.19-0.14,0.26
					C322.18,177.12,322.8,177.19,322.99,176.96z"/>
				<g class="st9">
					<path class="st6" d="M309.83,171.82c0.21-0.1,0.38-0.01,0.46,0.16c0.03,0.06,0.05,0.14,0.05,0.2l-0.13,0.03
						c0-0.05-0.01-0.11-0.03-0.15c-0.05-0.1-0.14-0.14-0.27-0.08c-0.12,0.06-0.14,0.17-0.1,0.26c0.02,0.05,0.06,0.1,0.1,0.12
						l-0.1,0.07c-0.06-0.04-0.1-0.1-0.13-0.17C309.61,172.11,309.62,171.92,309.83,171.82z"/>
					<path class="st6" d="M310.51,172.27c0.02,0.05,0.01,0.09-0.04,0.11c-0.05,0.02-0.09,0-0.11-0.04
						c-0.02-0.05-0.01-0.09,0.04-0.11C310.44,172.21,310.48,172.23,310.51,172.27z M310.25,172.31l0.07,0.15l-0.42,0.21l-0.07-0.15
						L310.25,172.31z"/>
					<path class="st6" d="M310.15,173.14c-0.05-0.04-0.09-0.1-0.12-0.16c-0.05-0.11-0.06-0.26,0.1-0.34c0.18-0.09,0.28,0,0.34,0.12
						c0.06,0.12,0.04,0.23-0.09,0.3c-0.01,0.01-0.03,0.01-0.03,0.02l-0.13-0.28l-0.01,0.01c-0.07,0.03-0.08,0.09-0.05,0.16
						c0.02,0.04,0.06,0.08,0.09,0.13L310.15,173.14z M310.33,172.9c0.06-0.03,0.07-0.07,0.05-0.11s-0.06-0.06-0.12-0.04
						L310.33,172.9z"/>
					<path class="st6" d="M310.59,173.03l0.06,0.12l-0.05,0.04l0,0.01c0.07,0.02,0.11,0.06,0.14,0.11c0.04,0.09,0.02,0.17-0.1,0.22
						l-0.27,0.13l-0.07-0.15l0.25-0.12c0.05-0.02,0.07-0.05,0.05-0.09c-0.02-0.03-0.05-0.05-0.09-0.06l-0.27,0.13l-0.07-0.15
						l0.42-0.21C310.59,173.02,310.59,173.03,310.59,173.03z"/>
					<path class="st6" d="M310.83,173.51l0.03,0.07l0.13-0.03l0.05,0.11l-0.11,0.05l0.06,0.13l-0.1,0.04l-0.06-0.12l-0.16,0.08
						c-0.03,0.02-0.05,0.03-0.03,0.07c0.01,0.02,0.03,0.05,0.06,0.07l-0.1,0.07c-0.04-0.05-0.08-0.09-0.1-0.14
						c-0.05-0.1-0.02-0.16,0.09-0.21l0.19-0.09l-0.03-0.07L310.83,173.51L310.83,173.51z"/>
					<path class="st6" d="M311.03,173.93l0.07,0.15l-0.42,0.21l-0.07-0.15L311.03,173.93L311.03,173.93z M311.12,173.9l0.25,0.02
						l-0.01,0.13l-0.25-0.08L311.12,173.9z"/>
					<path class="st6" d="M311.18,174.51l-0.06-0.12l-0.33,0.16l-0.07-0.15l0.33-0.16l-0.03-0.07l0.1-0.05l0.03,0.07l0.02-0.01
						c0.13-0.06,0.21,0.02,0.26,0.12c0.02,0.05,0.05,0.11,0.05,0.16l-0.11,0.02c-0.01-0.03-0.02-0.07-0.04-0.1
						c-0.02-0.05-0.05-0.07-0.09-0.05l-0.02,0.01l0.13,0.27l-0.42,0.21l-0.07-0.15L311.18,174.51z"/>
					<path class="st6" d="M311.17,174.79c0.12-0.06,0.25-0.07,0.33,0.11c0.02,0.05,0.04,0.12,0.04,0.16l-0.12,0.03
						c0-0.03-0.01-0.08-0.03-0.11c-0.03-0.06-0.08-0.07-0.16-0.04c-0.06,0.03-0.1,0.07-0.06,0.15c0.02,0.04,0.05,0.07,0.07,0.1
						l-0.09,0.07c-0.03-0.03-0.07-0.08-0.1-0.14C311,174.97,311.03,174.86,311.17,174.79z"/>
					<path class="st6" d="M311.38,175.19c0.15-0.07,0.26-0.03,0.33,0.12c0.07,0.15,0.04,0.26-0.11,0.33
						c-0.16,0.08-0.26,0.02-0.33-0.12C311.2,175.4,311.22,175.27,311.38,175.19z M311.53,175.5c0.09-0.04,0.1-0.09,0.08-0.14
						c-0.02-0.05-0.07-0.07-0.16-0.02c-0.08,0.04-0.1,0.09-0.08,0.14C311.4,175.53,311.44,175.55,311.53,175.5z"/>
					<path class="st6" d="M311.49,175.98c-0.03-0.06-0.05-0.14-0.05-0.18l0.1-0.03c0,0.05,0.02,0.12,0.04,0.17
						c0.02,0.03,0.04,0.06,0.07,0.04c0.06-0.03-0.09-0.24,0.07-0.31c0.1-0.05,0.18,0.02,0.23,0.13c0.03,0.06,0.04,0.13,0.05,0.16
						l-0.1,0.03c-0.01-0.04-0.02-0.1-0.04-0.14c-0.02-0.03-0.04-0.05-0.06-0.04c-0.06,0.03,0.08,0.23-0.07,0.31
						C311.63,176.17,311.54,176.09,311.49,175.98z"/>
					<path class="st6" d="M311.58,176.61c0.06,0,0.14,0,0.22,0l-0.02-0.03c0.08-0.08,0.2-0.2,0.25-0.26
						c0.02-0.02,0.02-0.03,0.01-0.05l0.1-0.05c0,0.01,0.02,0.04,0.03,0.05c0.03,0.06,0.03,0.1-0.02,0.15
						c-0.01,0.01-0.14,0.14-0.18,0.18l0,0.01c0.1-0.01,0.26-0.03,0.33-0.04l0.07,0.15c-0.2,0.03-0.53,0.05-0.72,0.06l-0.08-0.16
						L311.58,176.61z"/>
					<path class="st6" d="M312.63,177.11l-0.09-0.18l0.11-0.05l0.25,0.51l-0.11,0.05l-0.09-0.18l-0.47,0.23l-0.07-0.15
						L312.63,177.11L312.63,177.11z"/>
					<path class="st6" d="M312.53,178.06c-0.05-0.04-0.09-0.1-0.12-0.16c-0.05-0.11-0.06-0.26,0.1-0.34c0.18-0.09,0.28,0,0.34,0.12
						c0.06,0.12,0.04,0.23-0.09,0.3c-0.01,0.01-0.03,0.01-0.03,0.02l-0.13-0.28l-0.01,0.01c-0.07,0.03-0.08,0.09-0.05,0.16
						c0.02,0.04,0.06,0.08,0.09,0.13L312.53,178.06z M312.72,177.83c0.06-0.03,0.07-0.07,0.05-0.11c-0.02-0.04-0.06-0.06-0.12-0.04
						L312.72,177.83z"/>
					<path class="st6" d="M312.75,178.04c0.12-0.06,0.25-0.07,0.33,0.11c0.02,0.05,0.04,0.12,0.04,0.16l-0.12,0.03
						c0-0.03-0.01-0.08-0.03-0.11c-0.03-0.06-0.08-0.07-0.16-0.04c-0.06,0.03-0.1,0.07-0.06,0.15c0.02,0.04,0.05,0.07,0.07,0.1
						l-0.09,0.07c-0.03-0.03-0.07-0.08-0.1-0.14C312.58,178.23,312.6,178.11,312.75,178.04z"/>
					<path class="st6" d="M313.18,178.37l0.06,0.12l-0.05,0.04l0,0.01c0.07,0.02,0.11,0.06,0.14,0.11c0.04,0.09,0.02,0.17-0.1,0.22
						l-0.27,0.13l-0.07-0.15l0.25-0.12c0.05-0.02,0.07-0.05,0.05-0.09c-0.02-0.03-0.05-0.05-0.09-0.06l-0.27,0.13l-0.07-0.15
						l0.42-0.21C313.18,178.36,313.18,178.37,313.18,178.37z"/>
					<path class="st6" d="M313.21,178.97c0.15-0.07,0.26-0.03,0.33,0.12c0.07,0.15,0.04,0.26-0.11,0.33
						c-0.16,0.08-0.26,0.02-0.33-0.12C313.03,179.17,313.05,179.05,313.21,178.97z M313.36,179.28c0.09-0.04,0.1-0.09,0.08-0.14
						c-0.02-0.05-0.07-0.07-0.16-0.02c-0.08,0.04-0.1,0.09-0.08,0.14C313.22,179.31,313.27,179.32,313.36,179.28z"/>
					<path class="st6" d="M313.86,179.32l0.07,0.15l-0.6,0.29l-0.07-0.15L313.86,179.32z"/>
					<path class="st6" d="M313.57,179.73c0.15-0.07,0.26-0.03,0.33,0.12c0.07,0.15,0.04,0.26-0.11,0.33
						c-0.16,0.08-0.26,0.02-0.33-0.12C313.4,179.93,313.42,179.8,313.57,179.73z M313.94,179.73l0.25,0.02l-0.01,0.13l-0.25-0.08
						L313.94,179.73z M313.72,180.04c0.09-0.04,0.1-0.09,0.08-0.14c-0.02-0.05-0.07-0.07-0.16-0.02c-0.08,0.04-0.1,0.09-0.08,0.14
						C313.59,180.07,313.64,180.08,313.72,180.04z"/>
					<path class="st6" d="M314.14,180.34c0.04,0.09,0.04,0.14,0.03,0.18l0,0.01c0.03-0.01,0.05-0.02,0.08,0.03
						c0.01,0.02,0.02,0.05,0.02,0.07l-0.07,0.03c-0.01-0.02-0.01-0.03-0.01-0.04c-0.02-0.03-0.04-0.03-0.06-0.02
						c-0.01,0.01-0.02,0.02-0.03,0.02c-0.09,0.04-0.17-0.01-0.22-0.13c0-0.01-0.01-0.02-0.01-0.03c-0.02-0.02-0.05-0.04-0.08-0.03
						c-0.02,0.01-0.02,0.04-0.01,0.06l0.06,0.13c0.05,0.11,0.04,0.19-0.04,0.23c-0.12,0.06-0.23-0.1-0.28-0.21
						c-0.03-0.07-0.09-0.21,0.01-0.26c0.06-0.03,0.1,0.01,0.13,0.03l0.01,0c-0.01-0.05,0.01-0.07,0.03-0.08
						c0.05-0.02,0.1,0.02,0.14,0.05l0.01,0c-0.01-0.06,0.01-0.12,0.07-0.15C314,180.16,314.09,180.22,314.14,180.34z M313.7,180.53
						c-0.01-0.01-0.04-0.05-0.08-0.03c-0.04,0.02-0.02,0.07,0,0.11c0.02,0.05,0.07,0.09,0.11,0.07c0.02-0.01,0.03-0.03,0.01-0.07
						C313.74,180.62,313.7,180.53,313.7,180.53z M313.94,180.44c0.02,0.04,0.05,0.05,0.1,0.03c0.04-0.02,0.06-0.06,0.04-0.1
						c-0.02-0.04-0.06-0.05-0.1-0.03C313.95,180.37,313.92,180.4,313.94,180.44z"/>
					<path class="st6" d="M314.56,180.64c0.02,0.05,0.01,0.09-0.04,0.11c-0.05,0.02-0.09,0-0.11-0.04
						c-0.02-0.05-0.01-0.09,0.04-0.11C314.49,180.57,314.53,180.59,314.56,180.64z M314.3,180.67l0.07,0.15l-0.42,0.21l-0.07-0.15
						L314.3,180.67z"/>
					<path class="st6" d="M314.18,180.99c0.12-0.06,0.25-0.07,0.33,0.11c0.02,0.05,0.04,0.12,0.04,0.16l-0.12,0.03
						c0-0.03-0.01-0.08-0.03-0.11c-0.03-0.06-0.08-0.07-0.16-0.04c-0.06,0.03-0.1,0.07-0.06,0.15c0.02,0.04,0.05,0.07,0.07,0.1
						l-0.09,0.07c-0.03-0.03-0.07-0.08-0.1-0.14C314.01,181.18,314.03,181.07,314.18,180.99z"/>
					<path class="st6" d="M314.39,181.4c0.15-0.07,0.26-0.03,0.33,0.12s0.04,0.26-0.11,0.33c-0.16,0.08-0.26,0.02-0.33-0.12
						C314.21,181.6,314.23,181.48,314.39,181.4z M314.54,181.71c0.09-0.04,0.1-0.09,0.08-0.14c-0.02-0.05-0.07-0.07-0.16-0.02
						c-0.08,0.04-0.1,0.09-0.08,0.14C314.4,181.75,314.45,181.76,314.54,181.71z"/>
					<path class="st6" d="M314.5,182.19c-0.03-0.06-0.05-0.14-0.05-0.18l0.1-0.03c0,0.05,0.02,0.12,0.04,0.17
						c0.02,0.03,0.04,0.06,0.07,0.04c0.06-0.03-0.09-0.24,0.07-0.31c0.1-0.05,0.18,0.02,0.23,0.13c0.03,0.06,0.04,0.13,0.05,0.16
						l-0.1,0.03c-0.01-0.04-0.02-0.1-0.04-0.14c-0.02-0.03-0.04-0.05-0.06-0.04c-0.06,0.03,0.08,0.23-0.07,0.31
						C314.63,182.37,314.55,182.3,314.5,182.19z"/>
				</g>
			</g>
			<path class="st11" d="M319.34,157.41c-1.22-1.45-1.95-2.84-2.4-3.84c-0.57-1.29-0.85-2.37-0.97-2.93
				c-0.34-1.51-0.4-2.82-0.38-3.78l3.07-1.72l8.65-5.09l9.24,12.18l-9.65,6.42c-0.93,0.15-2.34,0.27-4.01-0.03
				C321.34,158.35,320.14,157.83,319.34,157.41z"/>
			<path class="st12" d="M335.11,153.21l-11.09-11.23c0,0-3.03,2.26-2.01,5.29c2.16,6.4,10.69,7.53,10.69,7.53L335.11,153.21z"/>
			<g>
				<path class="st13" d="M350.05,113.12c7.38,3.86,27.42,9.35,18.27,23.55c0.01,0.03,3.14,12.24-8.06,19.35
					c-6.81,2.81-14.21,0.85-14.21,0.85l-4.11-3.95l-7.6-31.98c0,0,1.15-2.87,3.13-5.81C338.66,113.98,343.62,109.77,350.05,113.12z"
					/>
				<path class="st12" d="M334.65,120.24c0.38-4.73-6.86-3.8-8.89-0.25c-2.03,3.55,1.57,4.67,1.57,4.67L334.65,120.24z"/>
				<path class="st11" d="M340.67,118.38c0,0,3.47,9.55,5.57,11.81c2.09,2.27,6.87,3.53,6.87,3.53s-4.56,7.33-4.38,10.05
					c0.15,2.3-2.1,5.97-2.81,7.09c-0.03,0.04-0.06,0.09-0.08,0.12c-0.03,0.07-0.07,0.12-0.1,0.15c-0.02,0.04-0.04,0.06-0.04,0.06
					s0.01,0,0.03,0.01c0.39,0.19,3.7,1.75,3.96,4.11c0.28,2.51-3.56,5.7-7.48,4.76c-3.92-0.95-3.82-5.27-3.82-5.27
					c-13.15-2.01-19.6-13.23-17.62-22.21c1.99-8.97,14.83-13.38,14.83-13.38C338.07,118.19,340.67,118.38,340.67,118.38z"/>
				<path class="st13" d="M344.99,133.27c3.35,2.9,1.77,6.89,1.77,6.89C350.1,135.05,344.99,133.27,344.99,133.27z"/>
				<path class="st13" d="M337.66,118.77c3.4,1.59,2.12,5.03,2.12,5.03C342.71,119.14,337.66,118.77,337.66,118.77z"/>
				<path class="st14" d="M329.69,133.39c-1.13-0.82-1.28-2.94-0.9-3.5c0.38-0.56,0.77-0.59,2.09,0.5c1.32,1.09,3.2-0.24,3.2-0.24
					C333.12,132.44,330.82,134.2,329.69,133.39z"/>
				
					<ellipse transform="matrix(0.9684 -0.2494 0.2494 0.9684 -23.3611 89.3693)" class="st13" cx="340.95" cy="136.86" rx="1.73" ry="1.19"/>
				<path class="st13" d="M336.7,124.14c0.13,0.51-0.36,1.07-1.1,1.26c-0.74,0.19-1.44-0.07-1.57-0.58
					c-0.13-0.51,0.36-1.07,1.1-1.26C335.87,123.37,336.57,123.63,336.7,124.14z"/>
				<g>
					<path class="st13" d="M325.98,132.17c0.21-0.05,0.42,0.07,0.47,0.28l1.57,6.11c0.05,0.21-0.07,0.42-0.28,0.47
						c-0.21,0.05-0.42-0.07-0.47-0.28l-1.57-6.11C325.65,132.44,325.77,132.22,325.98,132.17z"/>
				</g>
			</g>
			<path class="st12" d="M344.07,125.82c3.12,6.87,14.3,6.91,14.3,6.91c-5.28,1.86-8.66,10.21-8.96,11.88
				c-0.26,1.41-2.72,5.13-3.48,6.26c0.71-1.12,2.96-4.79,2.81-7.09c-0.17-2.72,4.38-10.05,4.38-10.05s-4.77-1.26-6.87-3.53
				c-2.1-2.28-5.57-11.81-5.57-11.81S340.94,118.94,344.07,125.82z"/>
			<path class="st15" d="M344.53,109.04c6.08-1.66,29.62,10.18,27.15,19.65c-2.27,8.67-3.2,8.16-3.33,8c0-0.01,0-0.01-0.01-0.01
				c-0.01-0.01-0.01-0.02-0.01-0.02c9.15-14.2-10.9-19.69-18.27-23.55c-6.43-3.35-11.4,0.86-12.58,2.01
				C339.24,112.5,341.67,109.83,344.53,109.04z"/>
			<path class="st15" d="M368.34,136.68c0.01,0,0.01,0,0.01,0.01c0.36,0.43,5.26,6.59-1.94,14.93c-1.82,2.11-3.95,3.5-6.15,4.39
				c11.2-7.11,8.07-19.32,8.06-19.35C368.32,136.67,368.33,136.68,368.34,136.68z"/>
		</g>
		<g id="XMLID_1601_">
			<g id="XMLID_19115_">
				<g id="XMLID_18386_">
					<path id="XMLID_1508_" class="st6" d="M276.86,139.63c0,0,0.39-14.16-11.87-21.85l-1.26,1.88l-1.37-1.01l-0.85,1.28l-0.17-0.14
						c-1.87-1.59-4.65-1.59-6.45,0.07c-0.03,0.02-0.05,0.05-0.08,0.07L276.86,139.63z"/>
				</g>
			</g>
			<g id="XMLID_19018_">
				<g id="XMLID_18387_">
					<path id="XMLID_1507_" class="st6" d="M276.86,139.63c0,0,12.32-7,24.87,0.21l-1.07,1.99l1.53,0.73l-0.73,1.35l0.21,0.08
						c2.28,0.9,3.59,3.36,2.97,5.73c-0.01,0.03-0.02,0.07-0.03,0.1L276.86,139.63z"/>
				</g>
			</g>
			<g id="XMLID_18921_">
				<g id="XMLID_18388_">
					<linearGradient id="XMLID_4_" gradientUnits="userSpaceOnUse" x1="258.3006" y1="163.6251" x2="305.9056" y2="163.6251">
						<stop  offset="0" style="stop-color:#03C9BF"/>
						<stop  offset="1" style="stop-color:#32B3AF"/>
					</linearGradient>
					<path id="XMLID_1506_" class="st16" d="M304.82,149.88l-23.63-8.97l-22.89,36.65l23.22,8.64c0.9,0.34,1.91,0,2.44-0.8
						l21.67-33.03C306.22,151.48,305.83,150.26,304.82,149.88z"/>
				</g>
			</g>
			<g id="XMLID_18824_">
				<g id="XMLID_18389_">
					<linearGradient id="XMLID_5_" gradientUnits="userSpaceOnUse" x1="228.2936" y1="146.7176" x2="274.0765" y2="146.7176">
						<stop  offset="0" style="stop-color:#03C9BF"/>
						<stop  offset="1" style="stop-color:#32B3AF"/>
					</linearGradient>
					<path id="XMLID_1505_" class="st17" d="M254.69,119.68l19.38,16.96l-21.6,37.43l-23.58-17.52c-0.63-0.56-0.79-1.47-0.38-2.21
						l24.19-34.31C253.1,119.31,254.07,119.14,254.69,119.68z"/>
				</g>
			</g>
			<g id="XMLID_18727_">
				<g id="XMLID_18390_">
					<linearGradient id="XMLID_6_" gradientUnits="userSpaceOnUse" x1="252.4813" y1="157.1288" x2="281.189" y2="157.1288">
						<stop  offset="0" style="stop-color:#03C9BF"/>
						<stop  offset="1" style="stop-color:#32B3AF"/>
					</linearGradient>
					<path id="XMLID_1504_" class="st18" d="M281.19,140.92l-22.89,36.65c0,0-4.07,0.71-5.82-3.49l21.6-37.43l0,0
						C275.85,138.88,278.38,140.4,281.19,140.92L281.19,140.92z"/>
				</g>
			</g>
		</g>
		<g id="XMLID_419_">
			<g id="XMLID_432_">
				<g id="XMLID_433_">
					<linearGradient id="XMLID_7_" gradientUnits="userSpaceOnUse" x1="220.2008" y1="36.0582" x2="280.6001" y2="36.0582">
						<stop  offset="0" style="stop-color:#03C9BF"/>
						<stop  offset="1" style="stop-color:#32B3AF"/>
					</linearGradient>
					<path id="XMLID_434_" class="st19" d="M256.85,65.11l22.83-12.99c0.62-0.35,0.97-1.03,0.91-1.74l-3.87-43.05
						c-0.12-1.33-1.58-2.07-2.73-1.4l-20.33,12.05c-0.26,0.16-0.56,0.24-0.87,0.25l-30.84,0.87c-1.02,0.03-1.81,0.89-1.76,1.9
						l2.25,43.69c0.05,0.99,0.88,1.75,1.87,1.72l31.7-1.08C256.31,65.34,256.6,65.26,256.85,65.11z"/>
				</g>
			</g>
			<g id="XMLID_429_">
				<g id="XMLID_430_">
					<path id="XMLID_431_" class="st20" d="M255.74,64.46L226,65.71c-0.83,0.02-1.52-0.62-1.57-1.44L222,21.45
						c-0.04-0.75,0.53-1.4,1.29-1.44l29.99-1.77L255.74,64.46z"/>
				</g>
			</g>
			<g id="XMLID_426_">
				<g id="XMLID_427_">
					<path id="XMLID_428_" class="st20" d="M255.74,64.46c0,0,8.49-10.03,20.48-11.87c0.81-0.12,1.4-0.83,1.38-1.65l-1.29-42.52
						c0,0-5.72-0.1-10.15-4.27l-12.89,14.08L255.74,64.46z"/>
				</g>
			</g>
			<g id="XMLID_423_">
				<g id="XMLID_424_">
					<path id="XMLID_425_" class="st21" d="M255.74,64.46l-27.37,0.36c-0.74,0.01-1.36-0.57-1.39-1.31l-2.2-42.93
						c-0.03-0.57,0.3-1.11,0.82-1.33c2.78-1.2,12.17-4.38,27.67-1.01L255.74,64.46z"/>
				</g>
			</g>
			<g id="XMLID_420_">
				<g id="XMLID_421_">
					<path id="XMLID_422_" class="st6" d="M255.74,64.46c0,0,1.5-11.45,12.94-16.51c0.65-0.29,1.06-0.96,1-1.67l-3.52-42.12
						c0,0-7.33,2.22-12.89,14.08L255.74,64.46z"/>
				</g>
			</g>
		</g>
	</g>
</g>
</svg>
