<?xml version="1.0" encoding="utf-8"?>
<!-- Generator: Adobe Illustrator 24.2.0, SVG Export Plug-In . SVG Version: 6.00 Build 0)  -->
<svg version="1.1" id="Capa_1" xmlns="http://www.w3.org/2000/svg" xmlns:xlink="http://www.w3.org/1999/xlink" x="0px" y="0px"
	 viewBox="0 0 2886.1 2886.1" style="enable-background:new 0 0 2886.1 2886.1;" xml:space="preserve">
<style type="text/css">
	.st0{fill:#DAEDAE;}
	.st1{fill:#EFAC92;}
	.st2{fill:#924016;}
	.st3{fill:#FE706F;}
	.st4{fill:#A9368D;}
	.st5{fill:#102634;}
	.st6{fill:#20222C;}
	.st7{fill:#FCB83B;}
	.st8{fill:#DAEEF7;}
	.st9{fill:#9D398A;}
	.st10{fill:#FFFFFF;}
	.st11{fill:#D2967B;}
	.st12{fill:#C47036;}
	.st13{fill:#5D370A;}
	.st14{fill:#46271E;}
</style>
<g id="Background">
</g>
<g>
	<g>
		<g>
			<g>
				<path class="st0" d="M1979.5,99.5c281.7,3.5,377.4,185.3,327.4,485.2c-56.3,337.5,20.1,343.6,144.2,453.6
					c169.1,150,237.4,296.1,227.9,459.2c-9.5,163.2-150,426.5-389.5,411.2c-266.4-17-275.1-94.3-494.2-35.7
					c-219.1,58.6-193.6,193.6-468.7,313.3c-172.4,75-359.5,55.2-524.1-20.4c-161.6-74.2-252.4-253.6-255.8-431.4
					c-7.6-392.6-363.5-312.3-405.9-630.7c-23-172.8,151.9-329.6,286.4-398.9C627,602.1,541.8,304.8,937.8,338.8
					C1417.3,379.9,1697.7,96.1,1979.5,99.5z"/>
			</g>
			<path class="st0" d="M2355.6,795.6c-10.4,72.9,67.6,189,176.8,221.9s130,5.2,45.1-107.5C2492.6,797.3,2369.5,698.5,2355.6,795.6z
				"/>
			<path class="st0" d="M2591.4,1071.2c-24.4,12.5,3.5,60.7,36.4,43.3C2660.7,1097.2,2652.1,1040,2591.4,1071.2z"/>
			<path class="st0" d="M416.9,1654c-72.1,171.2-35.6,394.5,83,444.9s59.3-86,32.6-142.4s-50.4-142.4-53.4-231.3
				C476.2,1636.2,440.6,1597.6,416.9,1654z"/>
		</g>
		<ellipse class="st0" cx="1503.6" cy="2707.7" rx="543.8" ry="98.6"/>
		<g>
			<g>
				<path class="st1" d="M2042.8,1640.3c-0.7,4-41,52.4-51.7,65.3c-1.7,2.1-3.2,4.4-4.3,6.9l-26.9,58.4c-0.9,2-0.8,4.3,0.3,6.1l0,0
					c2.3,3.9,7.8,4.2,10.6,0.7l30.3-37.4c2.2-2.7,6.5-0.8,6,2.6l-5.8,40l-6.1,69.8c-0.3,3.7,2.1,7,5.7,7.8l0.5,0.1
					c4,0.9,7.9-1.6,8.8-5.6l17.9-79.1c0,0-7.5,74.4-8,78.3s7.2,1.2,8.1-1.8l20.8-70c0,0-16.9,61.5-17.5,63.6c-1,3.6,5.8,2,5.8,2
					c1.9-0.7,3.5-2.2,4.3-4.1l25.5-60.6c0,0-13.4,44.6-15.1,50.2c-1.8,5.6,6,2.5,6,2.5c1.7-0.8,3.1-2.1,3.8-3.9l23.3-54.8
					c0.9-2.1,1.2-4.3,1-6.6l-12.4-123.7L2042.8,1640.3z"/>
				<path class="st1" d="M2036.4,1655.7l27.4-315.7c5.7-21.5,12.2-33.7,43-38.7c46.6-7.5,33,88.9,33,88.9l-65.7,275.8
					C2057.7,1670.3,2036.6,1666.6,2036.4,1655.7z"/>
				<polygon class="st2" points="1005.8,748.7 1442.3,818.8 1433.9,650.1 1427.7,423 1050.7,372.1 1011,538 				"/>
				<path class="st1" d="M1113.3,2670.6c1.4-4.4,4.2-8.1,8.2-10.5c20.9-12.8,89.8-55.4,104.7-70.3c17.6-17.7,46.6-34.8,58.8-21.9
					c14,14.8,22.6,82.8,22.6,82.8s-100,52.1-117.6,60.9c-13.1,6.6-54-3.9-74-9.7c-6.2-1.8-9.7-8.3-7.8-14.5L1113.3,2670.6z"/>
				<path class="st3" d="M1157.9,2656.4c-2.2-1.5-7.6-8.7,8.9-25.4c-3.2,1.9-32.7,20.2-45.9,28.3c-4,2.5-6.9,6.3-8.2,10.9l-5,17.4
					c-1.7,6.1,1.8,12.4,7.8,14.2c19.7,5.9,60.5,16.7,73.6,10.1c17.6-8.9,117.7-61.9,117.7-61.9s-3.3-26.1-9.2-49.4
					C1247.5,2641.1,1187.3,2675.9,1157.9,2656.4z"/>
				<path class="st4" d="M1567.9,859c-67.1,7.7-250.5,135.2-250.5,135.2c-94.2,65.7-115.2-55-132.5-57.9
					c-12.1-2,30.8-97.3,57.6-102.4c91.3-17.7,226.3-70,338.6-73.7c201.1-6.6,312.8,29.3,316.6,34.1c15,18.8,19.7,97.8,19.7,97.8
					S1600.1,855.3,1567.9,859z"/>
				<path class="st5" d="M1916.7,2647.2c-1.6-2.5-3.7-4.6-6.3-6c-19.6-10.6-106.2-57.9-121.3-73.1c-17-17.1-44.3-34.3-57.9-20
					s-26.9,79.5-26.9,79.5s135,56.8,152,65.3c10.9,5.5,39.2-4.2,58.1-11.8c9.7-3.9,13.5-15.7,8-24.6L1916.7,2647.2z"/>
				<path class="st6" d="M1763.9,1430.7l-15.7,574.3l-33.8,559.9l73,0.7l79.1-559.5l91.3-500
					C1957.9,1506.1,1792.5,1360.2,1763.9,1430.7z"/>
				<path class="st5" d="M1488.7,2648.9c2.2-3.6,5.3-6.5,9-8.6c22.4-12.2,104.9-57.4,119.5-72.2c17-17.1,44.3-34.3,57.9-20
					s26.9,79.5,26.9,79.5s-135,56.8-152,65.3c-9.3,4.7-31.4-1.7-49.4-8.4C1486.4,2679.1,1480.7,2661.9,1488.7,2648.9L1488.7,2648.9z
					"/>
				<path class="st6" d="M1746.2,1433.3L1692,2564.9l-73,0.7l-66.9-1057C1552.1,1508.7,1717.6,1362.7,1746.2,1433.3z"/>
				<path class="st7" d="M1698.3,859c0,0-44.3,12.7-121.7-38.1c-51-33.5-306.7,387-306.7,387s52.9,40.4,73.7,46.7
					c20.8,6.3,206.7-194.4,224.2-184.6c12.4,6.9,24,156.6,24,156.6S1737.8,916.4,1698.3,859z"/>
				<path class="st7" d="M1735,886.1c0,0,106.6-97,183.1-81.4c114.5,23.2,262,616.6,262,616.6s-61.3,5.2-119.7-4.9
					c-23.1-4-143.8-346.7-137.6-333.8c6.2,12.9-12.5,109.8-12.5,109.8S1704.9,951,1735,886.1z"/>
				<path class="st8" d="M1933.3,1131.8c3.5-114.9-23-275.3-15-325.3c0,0-108.9-30.7-178-24.4c-69.2,6.3-117.6,24.4-125.1,27.6
					c-12.8,5.5-88.1,709.5-80.8,742.4c8.9,39.9,421.2,37.9,387.5-18.4C1921.9,1533.7,1932.1,1170.9,1933.3,1131.8z"/>
				<path class="st7" d="M1539.4,844.1c0,0-43,769.8-43,792c0,22.2,81.9,13.3,93,15.5s62.4-832.3,62.4-850.2
					C1651.7,795.5,1539.4,821.7,1539.4,844.1z"/>
				<path class="st7" d="M1927.6,804.7c0,0-44.9-15.3-77.9-16.5c-6.6-0.2-26,479.7-26,546.2c0,15.7-8.9,297.1-11.1,303.7
					c-2.2,6.6,157.4-15.5,166.3-28.8S1952,873.4,1927.6,804.7z"/>
				<path class="st1" d="M1471,2696.2c-0.5-3.4-2.4-6.5-5.3-8.5c-17.9-12.2-84.4-57.4-102-70.2c-20.3-14.9-51-28-62.4-10.9
					s-11,66.1-11,66.1s68,55.6,86.8,61.6c14.6,4.6,64.5-8.1,86.4-14.1c6-1.6,9.8-7.5,8.9-13.6L1471,2696.2z"/>
				<path class="st3" d="M1466.1,2687.7c-9.2-6.2-30.5-20.6-45-30.5c25.5,23.8-0.8,30.9-14.1,33.6c-10.5,2.2-21,1-31-2.1
					c-10.7-1.7-20.8-6.2-28.7-13.6c-14-8.5-28.8-19.3-39.4-30.7c-5.3-5.7-9.9-11.8-14.3-18c-4.1,20.6-3.9,45.7-3.9,45.7
					s68.6,56.5,87.5,62.5c14.6,4.6,64.8-8.2,86.8-14.2c6-1.6,9.8-7.5,8.9-13.6l-1.5-10.6C1470.9,2692.7,1469,2689.7,1466.1,2687.7z"
					/>
				<path class="st1" d="M1238,1433.2l53.5,1146l-57.1,3.5l-158.9-1083.5C1075.6,1499.2,1208.5,1360.4,1238,1433.2z"/>
				<path class="st1" d="M1426.8,1579.9c0,0-112.6-61.2-129.4,10.5c0,0-2.5,908.7,0.2,1030c17.6,4.3,30.3-7.7,51-13.4
					C1372.7,2462.8,1426.8,1579.9,1426.8,1579.9z"/>
				<path class="st4" d="M1432,1351.6c-22.2-106.6-26.7-140,10-235.4c13.3-23.2,21.6-52.1,21.6-78.2c0-27.2-19.8-69.7-45-105.5
					c-4-21-102.1-107.8-126.3-108.3c-134.1-2.7-239,62.4-239,62.4c8.2,51.1,52.1,220.7,61,318.4c8.9,97.8-28.9,135.5-51.1,288.8
					c-34.1,235.2-14.5,424.5-14.5,424.5c19.8,42.9,425.3,45.7,437.9-0.2C1493.6,1891.9,1486.4,1613.2,1432,1351.6z"/>
				<path class="st9" d="M1404.4,1087.8c-93.7,12-278.5,37.5-166.2,46.7C1350.6,1143.7,1477.6,1078.5,1404.4,1087.8z"/>
				<path class="st1" d="M1979.7,877.8l1.9-19.9l-13.7-8l13.8-2.2l0.8-14l-78.1-59.5c-2-0.6-4-1.2-6.1-1.7
					c-20.8-5.5-43.1-9.1-64.5-4.1c-6.4,1.5-12.5,3.5-18.6,5.9c7.7,24.8,16.7,58.1,16.7,58.1l72.3,79.9l10.4-8.8l-34.5-60.2
					l57.5,39.5l64.1,51.2l12.4-12.5l-72.9-67.1L1979.7,877.8z"/>
				<path class="st1" d="M1135.3,850.3c0,0,26.2,62.7,106,62.1c79.8-0.6,94.6-54.6,61.7-84.5c-10.3-9.3-81.5-5.5-81.5-5.5
					S1145.7,847.3,1135.3,850.3z"/>
				<g>
					<path class="st10" d="M2025.9,1504.7L2025.9,1504.7L2025.9,1504.7L2025.9,1504.7L2025.9,1504.7L2025.9,1504.7z"/>
				</g>
				<path class="st1" d="M1817.8,784.6l-8.4-216.9l-84.5,5.9l-12.1,211.9C1737.7,803.1,1790.8,803.5,1817.8,784.6z"/>
				<path class="st11" d="M1216.9,883.7c-9.3-7.1-17.2-15.1-24.7-23.5l-2.1-184.2l87.8,0.6l14.9,192.8
					C1271.5,888.4,1241.9,902.9,1216.9,883.7z"/>
				<path class="st1" d="M1070.2,387.6v225.1c0,96.2,78,174.2,174.2,174.2l0,0c96.2,0,174.2-78,174.2-174.2V387.6H1070.2z"/>
				<path class="st12" d="M1051.4,833.7l22.9-183.6l39.3-250.6l112.3,43.5l183.5,58l9.1,91.1l11.2-18.6l11.1-47.7l3.1-6.4
					c30.7-64.1,28.7-139-5.5-201.3l0,0c-23.5-42.8-67.6-70.2-116.4-72.4l-79-3.4c-59.8-2.6-116.6,25.8-150.4,75.2l0,0l0,0
					c-29.9,0-56.9,18.1-68.3,45.8l0,0c-43.2,105.4-63.9,218.6-60.7,332.5l0,0c1,36.3,16.5,70.8,42.9,95.7L1051.4,833.7z"/>
				<path class="st1" d="M1026.8,1603.4c0.8,4.6,54.3,68.4,54.3,68.4l30.1,65.3l-6.6,10.9l-43.9-54.2l7.6,52.2l6.7,76.2l-14,3.1
					l-19.5-86.3l8.5,81.9l-7.1-0.5l-22.3-74.9l18.9,68.2l-10.2-3.7l-26.7-63.6l17.2,56.2l-10.7-4.7l-25.8-60.6l12.7-127.1
					L1026.8,1603.4z"/>
				<path class="st1" d="M1033.3,1618.8l-27.4-315.7c-5.7-21.5-12.2-33.7-43-38.7c-46.6-7.5-33,88.9-33,88.9l65.7,275.8
					C1012,1633.4,1033.1,1629.7,1033.3,1618.8z"/>
				<path class="st4" d="M1079.1,877.8c-32.7-0.4-69.3,48.7-82.5,92.1l-70.4,335.4c0,0,6.4,7.5,43.3,9.9c36.9,2.4,47.9-7.9,47.9-7.9
					l102.7-295.6C1120.1,1011.8,1128.6,878.4,1079.1,877.8z"/>
			</g>
			<g>
				<path class="st1" d="M1612,474.9c13.8,35.9,13.6,63.5-9.9,73.9c-23.4,10.4-74-3.3-87.8-39.2c-13.9-35.9-6.1-73.4,17.3-83.8
					C1555.1,415.4,1598.2,439,1612,474.9z"/>
				<path class="st1" d="M1554.2,517.5c18.8,122.8,106.4,205.3,230,194.4c112.4-9.9,190.2-167,193.3-310.4
					c3.2-143.3-73.6-256.7-209.4-254.6C1560.2,150.1,1514.6,258.6,1554.2,517.5z"/>
				<path class="st1" d="M1911.2,463.5c-14.3,35.7-14.4,63.3,8.9,74s74-2.4,88.3-38.1s7-73.3-16.3-84
					C1968.9,404.7,1925.5,427.8,1911.2,463.5z"/>
			</g>
			<path class="st13" d="M1564.1,602.7c26.5,60,63.5,103.3,105.9,119.9c76.7,30.2,143.2,20.8,200-11.2
				c127.8-72,102.3-436.8,102.3-436.8l-36.1,7.1c0,0,9.5,239.5-23.8,278.7c-14.2,16.7-71.5-15.8-147.4-16.6
				c-89.7-0.9-163.4,39.1-176.5,21.2c-15.7-21.4-39.6-146.7-11.4-285.1c11.2-55.2-55.2-1.8-55.2-1.8S1529.8,525.1,1564.1,602.7z"/>
			<path class="st13" d="M1681.5,133.5l22.8-16.4c30.3-25.2,132.1-51.2,168.9-20.9c-8.7,0.2-2.7,5.3-11.4,5.8
				c50.8,11.4,134.1,33.2,139.9,143.9c2.7,50.2-5.1,119.5-14.6,167.5c-11.6,1.2-11-4.1-20.3,3.4c-7.2,5.8-8.9,8.7-11.5,14
				c2.2-56.2-16-132.4-56.6-176.8c-19-20.7-69.6-11.5-97.1-17.3c-34.4-7.4-66.6-19.5-93-42C1678,168.5,1660.2,154.7,1681.5,133.5z"
				/>
			<path class="st13" d="M1725.2,116.1c32.9,11.2,75.5,20,94.2,51.7l-10.2-3.1c34.5,41.3-68,153.6-94.4,180.4
				c-30.2,30.6-69.4,46.1-107.1,55.2c-0.9-6.6-0.1-13.9,1.4-20.8c1.5-3.9,2.7-7.7,3-10.9c-1.1,3.4-2.2,7.1-3,10.9
				c-4.2,10.6-11.8,22.5-17.8,28.7c-14.1,14.5-47.3,59.6-50.5,94.7c-45.8-182.5-54.4-288.2,30.8-364.8
				C1614.7,99.2,1702.6,108.4,1725.2,116.1z"/>
			<g>
				<path class="st14" d="M1691.9,573.6c-0.2,0.7-0.5,1.4-0.6,2.2l-0.2,1.1l-0.1,1.1c-0.1,0.7,0,1.5,0,2.2s0.1,1.5,0.2,2.2
					c0.4,2.9,1.1,5.7,2.1,8.5c1,2.7,2.2,5.3,3.7,7.8s3.1,4.8,4.9,7c3.7,4.4,7.9,8.1,12.8,11.1c1.2,0.7,2.4,1.4,3.7,2.1
					c1.3,0.6,2.5,1.3,3.8,1.9l3.9,1.6l4.1,1.3c2.8,0.8,5.5,1.6,8.4,2l2.1,0.4c0.7,0.1,1.4,0.2,2.1,0.3l4.3,0.6
					c2.9,0.2,5.8,0.5,8.7,0.5c1.5,0,2.9,0.1,4.4,0.1l4.4-0.1c11.8-0.3,23.7-1.9,35.7-3.6c-11.2,4.7-23.1,8-35.3,9.5l-4.6,0.5
					c-1.5,0.1-3.1,0.1-4.6,0.2c-3.1,0.2-6.2,0-9.3-0.1c-1.6-0.1-3.1-0.3-4.7-0.4c-0.8-0.1-1.6-0.1-2.3-0.3l-2.3-0.4
					c-3.1-0.5-6.2-1.3-9.2-2.1c-6.1-1.8-11.9-4.5-17.2-8.2c-5.3-3.6-9.9-8.2-13.5-13.5c-1.8-2.6-3.3-5.4-4.6-8.3
					c-1.2-2.9-2.2-6-2.8-9c-0.6-3.1-0.8-6.3-0.6-9.4C1689.5,579.4,1690.2,576.2,1691.9,573.6z"/>
			</g>
		</g>
	</g>
</g>
</svg>
