<?xml version="1.0" encoding="utf-8"?>
<!-- Generator: Adobe Illustrator 24.2.0, SVG Export Plug-In . SVG Version: 6.00 Build 0)  -->
<svg version="1.1" id="bold" xmlns="http://www.w3.org/2000/svg" xmlns:xlink="http://www.w3.org/1999/xlink" x="0px" y="0px"
	 viewBox="0 0 512 512" style="enable-background:new 0 0 512 512;" xml:space="preserve">
<style type="text/css">
	.st0{fill:#FA7268;}
	.st1{fill:#F7A6A6;}
</style>
<path class="st0" d="M278.2,101.2l-11.1-14.6L278.2,72c2.4-3.2,1.8-7.7-1.4-10.1c-1.3-1-2.8-1.5-4.4-1.5h-56.8c-4,0-7.3,3.2-7.4,7.2
	v64.1h14.4v-18.9h49.7c4,0,7.2-3.3,7.2-7.2C279.7,104,279.2,102.4,278.2,101.2z"/>
<path class="st0" d="M50.4,287.7c-5.9,0-10.7,4.7-10.7,10.6v0.1v140.8h91.1V287.7H50.4z M74,399.6c0,4-3.2,7.2-7.2,7.2
	s-7.2-3.2-7.2-7.2v-15.5c0-4,3.2-7.2,7.2-7.2s7.2,3.2,7.2,7.2V399.6z M74,339.2c0,4-3.2,7.2-7.2,7.2s-7.2-3.2-7.2-7.2v-15.5
	c0-4,3.2-7.2,7.2-7.2s7.2,3.2,7.2,7.2V339.2z M110.9,399.6c0,4-3.2,7.2-7.2,7.2s-7.2-3.2-7.2-7.2v-15.5c0-4,3.2-7.2,7.2-7.2
	s7.2,3.2,7.2,7.2V399.6z M110.9,339.2c0,4-3.2,7.2-7.2,7.2s-7.2-3.2-7.2-7.2v-15.5c0-4,3.2-7.2,7.2-7.2s7.2,3.2,7.2,7.2V339.2z"/>
<path class="st0" d="M214.4,187.2L145.2,246v193.2h31.6v-75.1c-0.1-3.7,2.9-6.8,6.6-6.9c0.1,0,0.2,0,0.4,0h62
	c3.7-0.1,6.7,2.8,6.8,6.5c0,0.2,0,0.3,0,0.5v75.1h30.7V246L214.4,187.2z M245.7,316.6h-62.4c-4,0-7.2-3.2-7.2-7.2s3.2-7.2,7.2-7.2
	h62.4c4,0,7.2,3.2,7.2,7.2C252.9,313.4,249.7,316.6,245.7,316.6z"/>
<path class="st0" d="M214.7,141.5l-103.2,88.4l13,15.2l85.5-72.9c2.7-2.3,6.7-2.3,9.4,0l85.2,72.9l13.3-15.3L214.7,141.5z"/>
<rect x="191.2" y="371.6" class="st0" width="46.9" height="67.6"/>
<path class="st1" d="M355.7,421.5l-56.2-53.1c-1.9-1.8-2.9-4.2-2.9-6.8c0-2.6,1.1-5,2.9-6.8l56.2-53.1c6-5.6,15.8-1.4,15.8,6.8v28.1
	h65.6c15.5,0,28.1-12.6,28.1-28.1c0-5.2,4.2-9.4,9.4-9.4c5.2,0,9.4,4.2,9.4,9.4v18.7c0,32.7-26.6,59.4-59.4,59.4h-53.1v28.1
	C371.5,423,361.7,427.1,355.7,421.5z"/>
</svg>
