<?xml version="1.0" encoding="utf-8"?>
<!-- Generator: Adobe Illustrator 24.2.0, SVG Export Plug-In . SVG Version: 6.00 Build 0)  -->
<svg version="1.1" id="Layer_1" xmlns="http://www.w3.org/2000/svg" xmlns:xlink="http://www.w3.org/1999/xlink" x="0px" y="0px"
	 viewBox="0 0 512 512" style="enable-background:new 0 0 512 512;" xml:space="preserve">
<style type="text/css">
	.st0{fill:#E6AF78;}
	.st1{fill:#EFF2FA;}
	.st2{fill:#D29B6E;}
	.st3{fill:#F0C087;}
	.st4{fill:#E4EAF6;}
	.st5{fill:#5B5D6E;}
	.st6{fill:#515262;}
	.st7{fill:#785550;}
	.st8{fill:#694B4B;}
	.st9{fill:#5A4146;}
	.st10{fill:url(#SVGID_1_);}
	.st11{fill:url(#SVGID_2_);}
	.st12{fill:url(#SVGID_3_);}
	.st13{fill:url(#SVGID_4_);}
	.st14{fill:url(#SVGID_5_);}
	.st15{fill:url(#SVGID_6_);}
	.st16{fill:url(#SVGID_7_);}
	.st17{enable-background:new    ;}
	.st18{fill:#A7A9AC;}
	.st19{fill:#F26522;}
	.st20{fill:none;stroke:#000000;stroke-width:0.1;stroke-miterlimit:10;}
</style>
<polygon class="st0" points="335.4,361.9 335.4,300.1 176.6,300.1 176.6,361.9 256,432.6 "/>
<path class="st1" d="M458.3,390.8l-109.2-25.7c-1.6-0.4-3.2-1-4.6-1.8L256,414.9l-85-54.1c-2.2,2.1-4.9,3.6-8,4.3L53.7,390.8
	c-16,3.8-27.2,18-27.2,34.4v69.1c0,9.8,7.9,17.7,17.7,17.7h423.7c9.8,0,17.7-7.9,17.7-17.7v-69.1
	C485.5,408.8,474.2,394.6,458.3,390.8z"/>
<path class="st2" d="M176.6,300.1v65.2c100.1,36.1,158.9-54.2,158.9-54.2v-11L176.6,300.1L176.6,300.1z"/>
<path class="st3" d="M141.2,97.1l7.7,169.2c0.7,15.8,8.5,30.5,21.1,40l36.5,27.4c9.2,6.9,20.3,10.6,31.8,10.6h35.3
	c11.5,0,22.6-3.7,31.8-10.6l36.5-27.4c12.7-9.5,20.4-24.2,21.1-40l7.7-169.2C370.8,97.1,141.2,97.1,141.2,97.1z"/>
<path class="st0" d="M229.5,132.4c35.3,0,88.3-8.8,100.8-35.3H141.2l7.7,169.2c0.7,15.8,8.5,30.5,21.1,40l36.5,27.4
	c9.2,6.9,20.3,10.6,31.8,10.6H256c-17.7,0-53-35.3-53-79.4c0-21.6,0-79.4,0-105.9C203,150.1,211.9,132.4,229.5,132.4z"/>
<g>
	<path class="st4" d="M91.3,454.7l-57.2-51.4c-4.8,6.1-7.6,13.7-7.6,21.9v69.1c0,9.8,7.9,17.7,17.7,17.7H106v-24.5
		C105.9,475,100.6,463.1,91.3,454.7z"/>
	<path class="st4" d="M420.7,454.7l57.2-51.4c4.8,6.1,7.6,13.7,7.6,21.9v69.1c0,9.8-7.9,17.7-17.7,17.7H406v-24.5
		C406.1,475,411.4,463.1,420.7,454.7z"/>
</g>
<polygon class="st5" points="278.1,512 233.9,512 239.5,432.6 272.6,432.6 "/>
<path class="st6" d="M278.1,414.9H234v16.6c0,5.5,4.4,9.9,9.9,9.9h24.4c5.5,0,9.9-4.4,9.9-9.9L278.1,414.9L278.1,414.9z"/>
<g>
	<path class="st4" d="M175.3,342.3l80.7,72.6c0,0-22.6,11.4-50.5,34.4c-5.8,4.7-14.5,2.8-17.5-4l-37.9-83.4l12-18
		C165.1,339.5,171.3,338.7,175.3,342.3z"/>
	<path class="st4" d="M336.7,342.3L256,414.9c0,0,22.6,11.4,50.5,34.4c5.8,4.7,14.5,2.8,17.5-4l37.9-83.4l-12-18
		C347,339.5,340.7,338.7,336.7,342.3z"/>
</g>
<path class="st7" d="M309.5,38.6l8.3,58.5c37.8,7.6,43.2,66.8,44,83.8c0.1,3.1,1.1,6,2.8,8.6l14.4,22.4c0,0-4.9-37,17.7-61.8
	C396.7,150.1,404.4,3.3,309.5,38.6z"/>
<path class="st3" d="M387.9,208.1l-10,39.9c-1.2,4.7-5.4,8-10.3,8l0,0c-5.4,0-9.9-4-10.5-9.3l-5.1-40.8
	c-1.4-10.9,7.1-20.6,18.1-20.6l0,0C382,185.4,390.7,196.6,387.9,208.1z"/>
<path class="st8" d="M149.7,22.8l13.1,8.9c-59,43.6-48,118.3-48,118.3c17.7,17.7,17.7,61.8,17.7,61.8l17.7-17.7
	c0,0-6.8-51,26.5-70.6c30.9-18.2,57.9-8.8,85.5-8.8c73.9,0,94.6-27.9,91-61.8c-2-17.5-28.8-54-97.2-52.9
	C228.4,0.5,176.6,8.9,149.7,22.8z"/>
<path class="st9" d="M144.6,107.1c0,0-9.4-37,18.2-75.3c-59,43.6-48,118.3-48,118.3c17.7,17.7,17.7,61.8,17.7,61.8l17.7-17.7
	c0,0-6.8-51,26.5-70.6c30.9-18.2,57.9-8.8,85.5-8.8c12,0,22.5-0.8,31.8-2.2C237,114.5,203.4,71.4,144.6,107.1z"/>
<path class="st0" d="M124.2,208.1l10,39.9c1.2,4.7,5.4,8,10.3,8l0,0c5.4,0,9.9-4,10.5-9.3l5.1-40.8c1.4-10.9-7.1-20.6-18.1-20.6l0,0
	C130,185.4,121.3,196.6,124.2,208.1z"/>
<path class="st4" d="M370.8,494.3H309c-4.9,0-8.8,4-8.8,8.8v8.8h79.4v-8.8C379.6,498.3,375.6,494.3,370.8,494.3z"/>
<g>
	
		<radialGradient id="SVGID_1_" cx="356.0131" cy="-567.3906" r="1.4971" gradientTransform="matrix(1 0 0 -1 0 -96)" gradientUnits="userSpaceOnUse">
		<stop  offset="0" style="stop-color:#8BC751"/>
		<stop  offset="0.214" style="stop-color:#87C350"/>
		<stop  offset="0.425" style="stop-color:#7BBA4E"/>
		<stop  offset="0.635" style="stop-color:#66AF4B"/>
		<stop  offset="0.8432" style="stop-color:#44A048"/>
		<stop  offset="1" style="stop-color:#0B9446"/>
	</radialGradient>
	<path class="st10" d="M357.5,471.4c0,0.8-0.7,1.5-1.5,1.5c-0.8,0-1.5-0.7-1.5-1.5c0-0.8,0.7-1.5,1.5-1.5
		C356.8,469.9,357.5,470.6,357.5,471.4z"/>
	
		<linearGradient id="SVGID_2_" gradientUnits="userSpaceOnUse" x1="335.422" y1="-556.3021" x2="335.422" y2="-562.0448" gradientTransform="matrix(1 0 0 -1 0 -96)">
		<stop  offset="0" style="stop-color:#8DC63F"/>
		<stop  offset="1" style="stop-color:#008E4A"/>
	</linearGradient>
	<path class="st11" d="M330.7,460c0-0.1,0.1-0.1,0.3-0.1c0.5,0,1.8-0.1,4.3,0.2c2.5,0.3,4.2,1.1,4.2,1.1c0.6,1.4,0.7,2.8,0.7,3.9
		c-0.1,1.9-0.5,3.8-0.8,4.6c-0.1,0.2-0.1,0.4-0.3,0.4c-0.1,0-0.2-0.3-0.4-0.5c-0.7-1.2-1.1-1.9-3.1-4.6c-1.6-2.2-3.7-4.1-4.6-4.7
		C330.8,460.1,330.7,460,330.7,460z"/>
	
		<linearGradient id="SVGID_3_" gradientUnits="userSpaceOnUse" x1="331.6906" y1="-570.4178" x2="332.6828" y2="-557.833" gradientTransform="matrix(1 0 0 -1 0 -96)">
		<stop  offset="0" style="stop-color:#8DC63F"/>
		<stop  offset="1" style="stop-color:#008E4A"/>
	</linearGradient>
	<path class="st12" d="M329.5,461.1c1.4,0.4,3.1,1.5,4.3,2.8c-0.3,1.6-0.4,1.9-0.4,4.9c0,3,1.1,5.3,1.3,5.8c0.2,0.3,0.2,0.4,0.1,0.5
		c-0.1,0.1-0.3-0.1-0.7-0.5c-1.9-1.9-3.3-4.6-4-7.3C329.4,464.6,329.5,462.2,329.5,461.1z"/>
	
		<linearGradient id="SVGID_4_" gradientUnits="userSpaceOnUse" x1="346.0072" y1="-558.6896" x2="341.0788" y2="-565.0424" gradientTransform="matrix(1 0 0 -1 0 -96)">
		<stop  offset="0" style="stop-color:#8DC63F"/>
		<stop  offset="1" style="stop-color:#008E4A"/>
	</linearGradient>
	<path class="st13" d="M341,460.8c0.1-0.1,0.4-0.1,0.5,0c0.2,0,2.6,0.5,4.8,1.8c1.9,1.2,3.2,2.5,3.6,2.8c0.3,0.3,0.2,0.7-0.3,1.2
		c-0.5,0.5-1.7,1.5-4.4,2.7c-2.7,1.2-4.8,1.7-5.3,1.8c-0.2,0.1-0.4,0.1-0.4,0c-0.1-0.2,0.3-0.5,0.7-1.6c0.2-0.7,0.7-2.2,1-4.2
		C341.4,462.1,340.7,460.9,341,460.8z"/>
	
		<linearGradient id="SVGID_5_" gradientUnits="userSpaceOnUse" x1="351.8845" y1="-567.6113" x2="342.1831" y2="-567.6113" gradientTransform="matrix(1 0 0 -1 0 -96)">
		<stop  offset="0" style="stop-color:#8DC63F"/>
		<stop  offset="1" style="stop-color:#008E4A"/>
	</linearGradient>
	<path class="st14" d="M352.2,466.3c0.1,0-0.1,0.5-0.2,1c-0.1,0.5-0.4,2.2-0.3,4c0.1,2.5,0.9,4,1.4,4.8c0.3,0.4,0.5,0.6,0.4,0.8
		c-0.1,0.1-0.6,0.2-3.6-0.2c-2.9-0.3-7.2-1.8-9.8-4.3c-0.2-0.2-0.3-0.3-0.2-0.5c0.1-0.2,0.3-0.2,0.7-0.3c1-0.1,2.9-0.6,5.2-1.5
		c3.2-1.3,5.2-2.9,5.9-3.5C351.9,466.4,352.1,466.2,352.2,466.3z"/>
	
		<linearGradient id="SVGID_6_" gradientUnits="userSpaceOnUse" x1="356.6969" y1="-574.293" x2="345.7713" y2="-574.293" gradientTransform="matrix(1 0 0 -1 0 -96)">
		<stop  offset="0" style="stop-color:#8DC63F"/>
		<stop  offset="1" style="stop-color:#008E4A"/>
	</linearGradient>
	<path class="st15" d="M342.1,474.8c0.1-0.1,0.2,0.1,0.8,0.4c1.4,0.8,4.1,2.1,7.2,2.6c3,0.5,5.4,0.2,6.3,0.1
		c0.4-0.1,0.7-0.1,0.7-0.1c0.1,0.1-0.8,0.8-1.2,1.1c-1.2,0.9-2.8,1.7-4,2.2c-1.1,0.4-1.4,0.6-1.8,0.6c-0.6,0-1.9-0.7-2.6-1.1
		c-1.2-0.7-2.7-1.8-3.2-2.4c-1.1-1.2-1.3-1.5-1.8-2.1C342.1,475.2,342,474.9,342.1,474.8z"/>
	
		<linearGradient id="SVGID_7_" gradientUnits="userSpaceOnUse" x1="361.9872" y1="-569.1025" x2="355.2802" y2="-578.879" gradientTransform="matrix(1 0 0 -1 0 -96)">
		<stop  offset="0" style="stop-color:#8DC63F"/>
		<stop  offset="1" style="stop-color:#008E4A"/>
	</linearGradient>
	<path class="st16" d="M362.8,473.5c0.2,0.1,0.1,0.5-0.1,1.8c-0.2,1.2-0.7,3.1-1.5,4.5c-0.8,1.4-1.7,2.7-3.1,3.6
		c-2.3-0.1-4.2-0.5-6-1.5c2.6-1,5-2.3,6.8-3.8c1.4-1.1,2.2-2.1,3.2-3.7C362.5,473.7,362.5,473.4,362.8,473.5z"/>
	<g class="st17">
		<path class="st18" d="M363.8,472.8c0-0.7,0.4-1,1-1c0.2,0,0.4,0,0.6,0.1l-0.1,0.4c-0.1-0.1-0.3-0.1-0.4-0.1
			c-0.3,0-0.5,0.2-0.5,0.6c0,0.4,0.2,0.6,0.6,0.6c0.2,0,0.3,0,0.4-0.1l0.1,0.4c-0.2,0.1-0.4,0.1-0.6,0.1
			C364.3,473.7,363.8,473.5,363.8,472.8z"/>
		<path class="st18" d="M365.9,473c0-0.5,0.2-0.7,0.7-0.7s0.7,0.2,0.7,0.7c0,0.5-0.3,0.7-0.7,0.7C366.2,473.7,365.9,473.5,365.9,473
			z M366.9,473c0-0.3-0.1-0.4-0.2-0.4c-0.1,0-0.2,0.1-0.2,0.4c0,0.2,0.1,0.4,0.2,0.4C366.8,473.4,366.9,473.3,366.9,473z"/>
		<path class="st18" d="M368,471.8h0.5v1.9H368V471.8z"/>
		<path class="st18" d="M370.3,473.6c-0.2,0.1-0.4,0.1-0.6,0.1c-0.4,0-0.7-0.2-0.7-0.7c0-0.6,0.4-0.7,0.7-0.7c0.4,0,0.6,0.2,0.6,0.6
			c0,0,0,0.1,0,0.1h-0.9v0c0,0.2,0.1,0.3,0.4,0.3c0.1,0,0.3,0,0.4-0.1L370.3,473.6z M369.9,472.9c0-0.2-0.1-0.2-0.2-0.2
			c-0.1,0-0.2,0.1-0.2,0.2H369.9z"/>
		<path class="st18" d="M371.6,472.3c0.3,0,0.4,0.1,0.5,0.2h0c0-0.1,0-0.2,0.2-0.2c0.1,0,0.1,0,0.2,0l0,0.2c-0.1,0-0.1,0-0.1,0
			c-0.1,0-0.1,0.1-0.1,0.1c0,0,0,0.1,0,0.1c0,0.3-0.2,0.4-0.6,0.4c0,0-0.1,0-0.1,0c-0.1,0-0.2,0.1-0.2,0.2c0,0.1,0.1,0.1,0.1,0.1
			h0.4c0.3,0,0.5,0.1,0.5,0.4c0,0.4-0.5,0.5-0.9,0.5c-0.2,0-0.7,0-0.7-0.3c0-0.2,0.1-0.2,0.2-0.3v0c-0.1,0-0.2-0.1-0.2-0.2
			c0-0.1,0.2-0.2,0.3-0.3v0c-0.2-0.1-0.3-0.2-0.3-0.4C370.9,472.5,371.2,472.3,371.6,472.3z M371.5,473.7c-0.1,0-0.2,0.1-0.2,0.2
			c0,0.1,0.2,0.1,0.3,0.1c0.2,0,0.3-0.1,0.3-0.2c0-0.1,0-0.1-0.2-0.1C371.8,473.7,371.5,473.7,371.5,473.7z M371.6,473
			c0.1,0,0.2-0.1,0.2-0.2c0-0.1-0.1-0.2-0.2-0.2c-0.1,0-0.2,0.1-0.2,0.2C371.4,472.9,371.4,473,371.6,473z"/>
		<path class="st18" d="M373.2,471.6c0.1,0,0.2,0.1,0.2,0.2c0,0.1-0.1,0.2-0.2,0.2c-0.1,0-0.2-0.1-0.2-0.2
			C372.9,471.7,373,471.6,373.2,471.6z M373,472.4h0.5v1.3H373V472.4z"/>
		<path class="st18" d="M374,473c0-0.5,0.2-0.7,0.7-0.7c0.5,0,0.7,0.2,0.7,0.7c0,0.5-0.3,0.7-0.7,0.7C374.3,473.7,374,473.5,374,473
			z M375,473c0-0.3-0.1-0.4-0.2-0.4c-0.1,0-0.3,0.1-0.3,0.4c0,0.2,0.1,0.4,0.3,0.4C374.9,473.4,375,473.3,375,473z"/>
		<path class="st18" d="M376.5,473.7c-0.2,0-0.4-0.1-0.5-0.1l0.1-0.3c0.1,0.1,0.3,0.1,0.5,0.1c0.1,0,0.2,0,0.2-0.1
			c0-0.2-0.7-0.1-0.7-0.6c0-0.3,0.3-0.4,0.6-0.4c0.2,0,0.4,0.1,0.5,0.1l-0.1,0.3c-0.1,0-0.3-0.1-0.4-0.1c-0.1,0-0.2,0-0.2,0.1
			c0,0.2,0.7,0.1,0.7,0.6C377.2,473.6,376.8,473.7,376.5,473.7z"/>
		<path class="st18" d="M378.7,473.1c0-0.5,0.3-0.7,0.7-0.7c0.1,0,0.2,0,0.3,0.1v-0.6h0.4v1.9h-0.4l-0.1-0.2h0
			c-0.1,0.1-0.2,0.2-0.4,0.2C378.9,473.7,378.7,473.4,378.7,473.1z M379.6,473.3v-0.6c-0.1,0-0.1-0.1-0.2-0.1
			c-0.2,0-0.3,0.2-0.3,0.4s0.1,0.4,0.2,0.4C379.5,473.4,379.6,473.4,379.6,473.3z"/>
		<path class="st18" d="M382,473.6c-0.2,0.1-0.4,0.1-0.6,0.1c-0.4,0-0.7-0.2-0.7-0.7c0-0.6,0.4-0.7,0.7-0.7c0.4,0,0.6,0.2,0.6,0.6
			c0,0,0,0.1,0,0.1h-0.9v0c0,0.2,0.1,0.3,0.4,0.3c0.1,0,0.3,0,0.4-0.1L382,473.6z M381.6,472.9c0-0.2-0.1-0.2-0.2-0.2
			c-0.1,0-0.2,0.1-0.2,0.2H381.6z"/>
		<path class="st18" d="M383.6,471.8h1.1v0.4h-0.7v0.4h0.5l0,0.3h-0.4v0.4h0.7v0.4h-1.1V471.8L383.6,471.8z"/>
		<path class="st18" d="M385.8,473.7c-0.2,0-0.4-0.1-0.5-0.1l0.1-0.3c0.1,0.1,0.3,0.1,0.5,0.1c0.1,0,0.2,0,0.2-0.1
			c0-0.2-0.7-0.1-0.7-0.6c0-0.3,0.3-0.4,0.6-0.4c0.2,0,0.4,0.1,0.5,0.1l-0.1,0.3c-0.1,0-0.3-0.1-0.4-0.1c-0.1,0-0.2,0-0.2,0.1
			c0,0.2,0.7,0.1,0.7,0.6C386.5,473.6,386.2,473.7,385.8,473.7z"/>
		<path class="st18" d="M386.9,472.4h0.2l0.1-0.4h0.4v0.4h0.4l0,0.3h-0.4v0.5c0,0.1,0,0.2,0.1,0.2c0.1,0,0.2,0,0.2-0.1l0.1,0.3
			c-0.2,0.1-0.3,0.1-0.5,0.1c-0.3,0-0.4-0.1-0.4-0.5v-0.6h-0.2L386.9,472.4L386.9,472.4z"/>
		<path class="st18" d="M390,473.7h-0.4l-0.1-0.2h0c-0.1,0.1-0.3,0.2-0.4,0.2c-0.3,0-0.5-0.2-0.5-0.5v-0.9h0.5v0.8
			c0,0.2,0.1,0.2,0.2,0.2c0.1,0,0.2-0.1,0.2-0.1v-0.9h0.5L390,473.7C390,473.7,390,473.7,390,473.7z"/>
		<path class="st18" d="M390.6,473.1c0-0.5,0.3-0.7,0.7-0.7c0.1,0,0.2,0,0.3,0.1v-0.6h0.4v1.9h-0.4l-0.1-0.2h0
			c-0.1,0.1-0.2,0.2-0.4,0.2C390.7,473.7,390.6,473.4,390.6,473.1z M391.5,473.3v-0.6c-0.1,0-0.1-0.1-0.2-0.1
			c-0.2,0-0.3,0.2-0.3,0.4s0.1,0.4,0.2,0.4C391.3,473.4,391.4,473.4,391.5,473.3z"/>
		<path class="st18" d="M392.8,471.6c0.1,0,0.2,0.1,0.2,0.2c0,0.1-0.1,0.2-0.2,0.2c-0.1,0-0.2-0.1-0.2-0.2
			C392.6,471.7,392.7,471.6,392.8,471.6z M392.6,472.4h0.5v1.3h-0.5V472.4z"/>
		<path class="st18" d="M393.6,473c0-0.5,0.2-0.7,0.7-0.7s0.7,0.2,0.7,0.7c0,0.5-0.3,0.7-0.7,0.7C393.9,473.7,393.6,473.5,393.6,473
			z M394.6,473c0-0.3-0.1-0.4-0.2-0.4c-0.1,0-0.2,0.1-0.2,0.4c0,0.2,0.1,0.4,0.2,0.4C394.5,473.4,394.6,473.3,394.6,473z"/>
		<path class="st18" d="M396.1,473.7c-0.2,0-0.4-0.1-0.5-0.1l0.1-0.3c0.1,0.1,0.3,0.1,0.5,0.1c0.1,0,0.2,0,0.2-0.1
			c0-0.2-0.7-0.1-0.7-0.6c0-0.3,0.3-0.4,0.6-0.4c0.2,0,0.4,0.1,0.5,0.1l-0.1,0.3c-0.1,0-0.3-0.1-0.4-0.1c-0.1,0-0.2,0-0.2,0.1
			c0,0.2,0.7,0.1,0.7,0.6C396.8,473.6,396.5,473.7,396.1,473.7z"/>
	</g>
	<path class="st19" d="M385.4,467.2h2.3v3.7h1.4v-3.7h2.3v-1h-6V467.2L385.4,467.2z M363.9,467.7v1.6c0,1.1,0.9,1.6,1.8,1.6h3.6v-1
		h-3.4c-0.3,0-0.6-0.3-0.6-0.6v-1.5c0-0.3,0.3-0.6,0.6-0.6h3.5v-1h-3.6C364.8,466.2,363.9,466.7,363.9,467.7z M376.7,469.3v-1.5
		c0-0.3,0.3-0.6,0.6-0.6h3.5v-1h-3.6c-0.9,0-1.8,0.5-1.8,1.6v1.6c0,1.1,0.9,1.6,1.8,1.6h3.6v-1h-3.5
		C376.9,469.9,376.7,469.6,376.7,469.3z M369.6,467.7v1.6c0,1.1,0.9,1.6,1.8,1.6h3.6v-1h-3.4c-0.3,0-0.6-0.3-0.6-0.6V469h4v-1h-4
		v-0.3c0-0.3,0.3-0.6,0.6-0.6h3.5v-1h-3.6C370.5,466.2,369.6,466.7,369.6,467.7z M393.6,467.2h3.5v-1h-3.6c-0.9,0-1.8,0.5-1.8,1.6
		v1.6c0,1.1,0.9,1.6,1.8,1.6h3.6v-1h-3.5c-0.3,0-0.6-0.3-0.6-0.6V469h4v-1h-4v-0.3C393,467.4,393.3,467.2,393.6,467.2z M383,468.7
		l-1.2-1.1h-1.2l1.9,1.8v1.6h0.9v-1.6l1.9-1.8h-1.2L383,468.7z"/>
	<path class="st20" d="M355.8,472.2"/>
	<path class="st19" d="M355.1,471.8c-0.1,0.1-0.3,0.2-0.4,0.3c-1.7,1.2-3.1,2.1-5.3,3.3c-6.3,3.4-11.6,4.7-12.3,3.4
		c-0.5-0.9,1.4-2.9,4.5-5.1c-0.1-0.1-0.3-0.2-0.4-0.3c-4.1,2.7-6.6,5.3-5.9,6.5c0.9,1.6,7.7-0.3,14.4-3.9c2.2-1.2,3.8-2.2,5.4-3.3
		c0.2-0.1,0.3-0.2,0.4-0.3c0.1-0.1,0.1-0.2,0-0.4C355.4,471.7,355.3,471.7,355.1,471.8z M360,466.9c-0.5-1.1-3.8-0.7-8.1,0.9
		c0,0.2-0.1,0.3-0.1,0.5c3.3-1.2,5.9-1.5,6.3-0.6c0.2,0.5-0.2,1.4-1.2,2.4c0.2,0.2,0.4,0.4,0.5,0.7
		C359.4,469.2,360.4,467.7,360,466.9z"/>
	<g class="st17">
		<path class="st18" d="M363.8,475.6c0-0.7,0.4-1,1-1c0.2,0,0.4,0,0.6,0.1l-0.1,0.4c-0.1-0.1-0.3-0.1-0.4-0.1
			c-0.3,0-0.5,0.2-0.5,0.6s0.2,0.6,0.6,0.6c0.2,0,0.3,0,0.4-0.1l0.1,0.4c-0.2,0.1-0.4,0.1-0.6,0.1
			C364.3,476.6,363.8,476.3,363.8,475.6z"/>
		<path class="st18" d="M365.8,474.5c0.1,0,0.2,0.1,0.2,0.2s-0.1,0.2-0.2,0.2c-0.1,0-0.2-0.1-0.2-0.2S365.7,474.5,365.8,474.5z
			 M365.6,475.2h0.5v1.3h-0.5V475.2z"/>
		<path class="st18" d="M367.6,476.5c-0.2,0.1-0.4,0.1-0.6,0.1c-0.4,0-0.7-0.2-0.7-0.7c0-0.6,0.4-0.7,0.7-0.7c0.4,0,0.6,0.2,0.6,0.6
			c0,0,0,0.1,0,0.1h-0.9v0c0,0.2,0.1,0.3,0.4,0.3c0.1,0,0.3,0,0.4-0.1L367.6,476.5z M367.2,475.7c0-0.2-0.1-0.2-0.2-0.2
			c-0.1,0-0.2,0.1-0.2,0.2H367.2z"/>
		<path class="st18" d="M367.9,475.2h0.4l0,0.2h0c0.1-0.1,0.3-0.2,0.4-0.2c0.3,0,0.4,0.2,0.4,0.5v0.9h-0.5v-0.8
			c0-0.2-0.1-0.2-0.2-0.2c-0.1,0-0.2,0.1-0.3,0.2v0.9h-0.5L367.9,475.2C367.8,475.2,367.9,475.2,367.9,475.2z"/>
		<path class="st18" d="M369.4,475.2h0.2l0.1-0.4h0.4v0.4h0.4l0,0.3H370v0.5c0,0.1,0,0.2,0.1,0.2c0.1,0,0.2,0,0.2-0.1l0.1,0.3
			c-0.2,0.1-0.3,0.1-0.5,0.1c-0.3,0-0.4-0.1-0.4-0.5v-0.6h-0.2L369.4,475.2L369.4,475.2z"/>
		<path class="st18" d="M370.7,475.2h0.5v1.3h-0.5V475.2L370.7,475.2z M370.7,474.9l0.4-0.6l0.3,0.2l-0.5,0.5L370.7,474.9z"/>
		<path class="st18" d="M372.4,475.5H372v1h-0.5v-1h-0.2v-0.3h0.2v-0.1c0-0.4,0.3-0.5,0.6-0.5c0.2,0,0.3,0,0.5,0.1l-0.1,0.3
			c-0.1,0-0.2,0-0.3,0c-0.1,0-0.2,0-0.2,0.2v0.1h0.8v1.3h-0.5V475.5z"/>
		<path class="st18" d="M373.1,475.9c0-0.4,0.1-0.7,0.7-0.7c0.2,0,0.4,0,0.5,0.1l-0.1,0.3c-0.1,0-0.2-0.1-0.3-0.1
			c-0.2,0-0.3,0.1-0.3,0.4c0,0.2,0.1,0.3,0.3,0.3c0.1,0,0.2,0,0.3-0.1l0.1,0.3c-0.1,0.1-0.3,0.1-0.5,0.1
			C373.3,476.6,373.1,476.3,373.1,475.9z"/>
		<path class="st18" d="M374.4,475.9c0-0.5,0.2-0.7,0.7-0.7s0.7,0.2,0.7,0.7c0,0.5-0.3,0.7-0.7,0.7S374.4,476.4,374.4,475.9z
			 M375.4,475.9c0-0.3-0.1-0.4-0.2-0.4c-0.1,0-0.2,0.1-0.2,0.4c0,0.2,0.1,0.4,0.2,0.4C375.3,476.2,375.4,476.1,375.4,475.9z"/>
		<path class="st18" d="M376.5,476.6c-0.2,0-0.4-0.1-0.5-0.1l0.1-0.3c0.1,0.1,0.3,0.1,0.5,0.1c0.1,0,0.2,0,0.2-0.1
			c0-0.2-0.7-0.1-0.7-0.6c0-0.3,0.3-0.4,0.6-0.4c0.2,0,0.4,0.1,0.5,0.1l-0.1,0.3c-0.1,0-0.3-0.1-0.4-0.1c-0.1,0-0.2,0-0.2,0.1
			c0,0.2,0.7,0.1,0.7,0.6C377.2,476.4,376.9,476.6,376.5,476.6z"/>
		<path class="st18" d="M378.2,477.1c0.1-0.1,0.2-0.4,0.3-0.6h-0.1c-0.1-0.3-0.3-0.8-0.4-1c0-0.1-0.1-0.1-0.1-0.1v-0.3
			c0,0,0.1,0,0.2,0c0.2,0,0.3,0,0.4,0.2c0,0.1,0.2,0.5,0.2,0.7h0c0.1-0.3,0.2-0.7,0.3-0.9h0.5c-0.2,0.5-0.5,1.4-0.7,1.9L378.2,477.1
			L378.2,477.1z"/>
		<path class="st18" d="M380.8,475h-0.6v-0.4h1.6v0.4h-0.6v1.5h-0.5V475L380.8,475z"/>
		<path class="st18" d="M383.1,476.5c-0.2,0.1-0.4,0.1-0.6,0.1c-0.4,0-0.7-0.2-0.7-0.7c0-0.6,0.4-0.7,0.7-0.7c0.4,0,0.6,0.2,0.6,0.6
			c0,0,0,0.1,0,0.1h-0.9v0c0,0.2,0.1,0.3,0.4,0.3c0.1,0,0.3,0,0.4-0.1L383.1,476.5z M382.8,475.7c0-0.2-0.1-0.2-0.2-0.2
			c-0.1,0-0.2,0.1-0.2,0.2H382.8z"/>
		<path class="st18" d="M383.4,475.9c0-0.4,0.1-0.7,0.7-0.7c0.2,0,0.4,0,0.5,0.1l-0.1,0.3c-0.1,0-0.2-0.1-0.3-0.1
			c-0.2,0-0.3,0.1-0.3,0.4c0,0.2,0.1,0.3,0.3,0.3c0.1,0,0.2,0,0.3-0.1l0.1,0.3c-0.1,0.1-0.3,0.1-0.5,0.1
			C383.6,476.6,383.4,476.3,383.4,475.9z"/>
		<path class="st18" d="M384.7,475.2h0.4l0,0.2h0c0.1-0.1,0.3-0.2,0.4-0.2c0.3,0,0.4,0.2,0.4,0.5v0.9h-0.5v-0.8
			c0-0.2-0.1-0.2-0.2-0.2c-0.1,0-0.2,0.1-0.3,0.2v0.9h-0.5L384.7,475.2C384.7,475.2,384.7,475.2,384.7,475.2z"/>
		<path class="st18" d="M386.3,475.9c0-0.5,0.2-0.7,0.7-0.7s0.7,0.2,0.7,0.7c0,0.5-0.3,0.7-0.7,0.7S386.3,476.4,386.3,475.9z
			 M387.3,475.9c0-0.3-0.1-0.4-0.2-0.4c-0.1,0-0.2,0.1-0.2,0.4c0,0.2,0.1,0.4,0.2,0.4C387.2,476.2,387.3,476.1,387.3,475.9z"/>
		<path class="st18" d="M388,474.6h0.5v1.9H388V474.6z"/>
		<path class="st18" d="M388.7,475.9c0-0.5,0.2-0.7,0.7-0.7c0.5,0,0.7,0.2,0.7,0.7c0,0.5-0.3,0.7-0.7,0.7
			C389,476.6,388.7,476.4,388.7,475.9z M389.2,474.9l0.4-0.6l0.3,0.2l-0.5,0.5L389.2,474.9z M389.7,475.9c0-0.3-0.1-0.4-0.2-0.4
			c-0.1,0-0.2,0.1-0.2,0.4c0,0.2,0.1,0.4,0.2,0.4C389.6,476.2,389.7,476.1,389.7,475.9z"/>
		<path class="st18" d="M391,475.2c0.3,0,0.4,0.1,0.5,0.2h0c0-0.1,0-0.2,0.2-0.2c0.1,0,0.1,0,0.2,0l0,0.2c-0.1,0-0.1,0-0.1,0
			c-0.1,0-0.1,0.1-0.1,0.1c0,0,0,0.1,0,0.1c0,0.3-0.2,0.4-0.6,0.4c0,0-0.1,0-0.1,0c-0.1,0-0.2,0.1-0.2,0.2c0,0.1,0.1,0.1,0.1,0.1
			h0.4c0.3,0,0.5,0.1,0.5,0.4c0,0.4-0.5,0.5-0.9,0.5c-0.2,0-0.7,0-0.7-0.3c0-0.2,0.1-0.2,0.2-0.3v0c-0.1,0-0.2-0.1-0.2-0.2
			c0-0.1,0.2-0.2,0.3-0.3v0c-0.2-0.1-0.3-0.2-0.3-0.4C390.3,475.3,390.6,475.2,391,475.2z M390.9,476.5c-0.1,0-0.2,0.1-0.2,0.2
			c0,0.1,0.2,0.1,0.3,0.1c0.2,0,0.3-0.1,0.3-0.2c0-0.1,0-0.1-0.2-0.1C391.2,476.5,390.9,476.5,390.9,476.5z M391,475.8
			c0.1,0,0.2-0.1,0.2-0.2c0-0.1-0.1-0.2-0.2-0.2c-0.1,0-0.2,0.1-0.2,0.2C390.8,475.7,390.9,475.8,391,475.8z"/>
		<path class="st18" d="M392.2,474.5c0.1,0,0.2,0.1,0.2,0.2s-0.1,0.2-0.2,0.2c-0.1,0-0.2-0.1-0.2-0.2S392.1,474.5,392.2,474.5z
			 M392,475.2h0.5v1.3H392V475.2z"/>
		<path class="st18" d="M392.7,475.9c0-0.4,0.1-0.7,0.7-0.7c0.2,0,0.4,0,0.5,0.1l-0.1,0.3c-0.1,0-0.2-0.1-0.3-0.1
			c-0.2,0-0.3,0.1-0.3,0.4c0,0.2,0.1,0.3,0.3,0.3c0.1,0,0.2,0,0.3-0.1l0.1,0.3c-0.1,0.1-0.3,0.1-0.5,0.1
			C393,476.6,392.7,476.3,392.7,475.9z"/>
		<path class="st18" d="M394,475.9c0-0.5,0.2-0.7,0.7-0.7s0.7,0.2,0.7,0.7c0,0.5-0.3,0.7-0.7,0.7C394.3,476.6,394,476.4,394,475.9z
			 M395,475.9c0-0.3-0.1-0.4-0.2-0.4c-0.1,0-0.2,0.1-0.2,0.4c0,0.2,0.1,0.4,0.2,0.4C394.9,476.3,395,476.1,395,475.9z"/>
		<path class="st18" d="M396.1,476.6c-0.2,0-0.4-0.1-0.5-0.1l0.1-0.3c0.1,0.1,0.3,0.1,0.5,0.1c0.1,0,0.2,0,0.2-0.1
			c0-0.2-0.7-0.1-0.7-0.6c0-0.3,0.3-0.4,0.6-0.4c0.2,0,0.4,0.1,0.5,0.1l-0.1,0.3c-0.1,0-0.3-0.1-0.4-0.1c-0.1,0-0.2,0-0.2,0.1
			c0,0.2,0.7,0.1,0.7,0.6C396.8,476.4,396.5,476.6,396.1,476.6z"/>
	</g>
</g>
</svg>
