<?xml version="1.0" encoding="utf-8"?>
<!-- Generator: Adobe Illustrator 24.2.0, SVG Export Plug-In . SVG Version: 6.00 Build 0)  -->
<svg version="1.1" id="Capa_1" xmlns="http://www.w3.org/2000/svg" xmlns:xlink="http://www.w3.org/1999/xlink" x="0px" y="0px"
	 viewBox="0 0 100 100" style="enable-background:new 0 0 100 100;" xml:space="preserve">
<style type="text/css">
	.st0{fill:#1A2E35;}
	.st1{fill:#007CFF;}
	.st2{fill:#00CAC0;}
	.st3{fill:#FFFFFF;}
	.st4{fill:#ECECEC;}
	.st5{fill:#F0F0F0;}
	.st6{fill:#F5F5F5;}
	.st7{fill:#E1E1E1;}
	.st8{fill:#E7E7E7;}
	.st9{fill:#F1AD8E;}
	.st10{fill:#CD5B51;}
	.st11{fill:#0D593C;}
	.st12{fill:#DD8C71;}
	.st13{opacity:0.2;}
	.st14{fill:#A63496;}
	.st15{opacity:0.3;fill:#A63496;}
	.st16{fill:#0E6D4B;}
	.st17{fill:#20222C;}
	.st18{fill:#181A21;}
</style>
<g>
	<path class="st0" d="M81.5,24.5v26.2c3.7,0,7.3-4.7,7.3-13.1C88.8,29.2,85.2,24.5,81.5,24.5z"/>
	<path class="st1" d="M78.5,25.5L78.5,25.5c0.1-0.3,0.3-0.4,0.5-0.5L79,25C78.8,25.2,78.6,25.3,78.5,25.5z"/>
	<path class="st1" d="M76.5,28.2l-0.1-0.1c0.4-0.8,0.8-1.4,1.3-2l0.1,0.1C77.3,26.7,76.9,27.4,76.5,28.2z"/>
	<ellipse class="st2" cx="81.5" cy="37.6" rx="6.7" ry="13.1"/>
	<ellipse class="st3" cx="81.5" cy="37.6" rx="5.4" ry="10.5"/>
	<ellipse class="st2" cx="81.5" cy="37.6" rx="4" ry="7.9"/>
	<ellipse class="st3" cx="81.5" cy="37.6" rx="2.7" ry="5.2"/>
	<ellipse class="st2" cx="81.5" cy="37.6" rx="1.3" ry="2.6"/>
</g>
<g>
	<g>
		<g>
			<rect y="81.2" class="st4" width="100" height="0.1"/>
			<path class="st4" d="M47.4,72.3H8.8c-0.6,0-1.1-0.5-1.1-1.1V16.8c0-0.6,0.5-1.1,1.1-1.1h38.6c0.6,0,1.1,0.5,1.1,1.1v54.3
				C48.5,71.8,48,72.3,47.4,72.3z M8.8,15.7c-0.6,0-1.1,0.5-1.1,1.1v54.3c0,0.6,0.5,1.1,1.1,1.1h38.6c0.6,0,1.1-0.5,1.1-1.1V16.8
				c0-0.6-0.5-1.1-1.1-1.1H8.8z"/>
			<path class="st4" d="M90.7,72.3H52c-0.6,0-1.1-0.5-1.1-1.1V16.8c0-0.6,0.5-1.1,1.1-1.1h38.6c0.6,0,1.1,0.5,1.1,1.1v54.3
				C91.8,71.8,91.3,72.3,90.7,72.3z M52,15.7c-0.6,0-1.1,0.5-1.1,1.1v54.3c0,0.6,0.5,1.1,1.1,1.1h38.6c0.6,0,1.1-0.5,1.1-1.1V16.8
				c0-0.6-0.5-1.1-1.1-1.1H52z"/>
		</g>
		<g>
			<rect x="10.5" y="83.1" class="st4" width="8.5" height="0.1"/>
			<rect x="24.3" y="82.5" class="st4" width="15.8" height="0.1"/>
			<rect x="19.2" y="84.9" class="st4" width="2" height="0.1"/>
			<rect x="82.7" y="84.6" class="st4" width="7.3" height="0.1"/>
			<rect x="78.3" y="84.6" class="st4" width="2.6" height="0.1"/>
			<rect x="36.7" y="83.8" class="st4" width="10.9" height="0.1"/>
		</g>
	</g>
	<g>
		<g>
			<g>
				<rect x="14.7" y="24.1" class="st5" width="28.9" height="57.1"/>
				<rect x="15.3" y="24.1" class="st6" width="28.3" height="57.1"/>
				
					<rect x="2.1" y="40.2" transform="matrix(-1.836970e-16 1 -1 -1.836970e-16 82.0264 23.2155)" class="st5" width="54.5" height="24.8"/>
				<path class="st3" d="M37.9,76.6H20.9c-0.8,0-1.5-0.7-1.5-1.5V64.9c0-0.8,0.7-1.5,1.5-1.5h17.1c0.8,0,1.5,0.7,1.5,1.5v10.2
					C39.5,75.9,38.8,76.6,37.9,76.6z M20.9,63.6c-0.7,0-1.3,0.6-1.3,1.3v10.2c0,0.7,0.6,1.3,1.3,1.3h17.1c0.7,0,1.3-0.6,1.3-1.3
					V64.9c0-0.7-0.6-1.3-1.3-1.3H20.9z"/>
				<path class="st3" d="M26.8,61.9h-5.9c-0.8,0-1.5-0.7-1.5-1.5V31c0-0.8,0.7-1.5,1.5-1.5h5.9c0.8,0,1.5,0.7,1.5,1.5v29.4
					C28.3,61.2,27.6,61.9,26.8,61.9z M20.9,29.6c-0.7,0-1.3,0.6-1.3,1.3v29.4c0,0.7,0.6,1.3,1.3,1.3h5.9c0.7,0,1.3-0.6,1.3-1.3V31
					c0-0.7-0.6-1.3-1.3-1.3H20.9z"/>
				<path class="st3" d="M37.9,61.9H32c-0.8,0-1.5-0.7-1.5-1.5V31c0-0.8,0.7-1.5,1.5-1.5h5.9c0.8,0,1.5,0.7,1.5,1.5v29.4
					C39.5,61.2,38.8,61.9,37.9,61.9z M32,29.6c-0.7,0-1.3,0.6-1.3,1.3v29.4c0,0.7,0.6,1.3,1.3,1.3h5.9c0.7,0,1.3-0.6,1.3-1.3V31
					c0-0.7-0.6-1.3-1.3-1.3H32z"/>
				<path class="st7" d="M36.1,50.4h3.7c0.3,0,0.5-0.2,0.5-0.5l0,0c0-0.3-0.2-0.5-0.5-0.5h-3.7c-0.3,0-0.5,0.2-0.5,0.5l0,0
					C35.6,50.2,35.8,50.4,36.1,50.4z"/>
				
					<rect x="14.3" y="52.4" transform="matrix(-1.836970e-16 1 -1 -1.836970e-16 94.2091 11.0328)" class="st5" width="54.5" height="0.4"/>
			</g>
		</g>
		<g>
			<g>
				<g>
					<rect x="56.5" y="20.9" class="st8" width="23.5" height="28"/>
					<rect x="57.1" y="20.9" class="st6" width="24.7" height="28"/>
					<rect x="59.2" y="23" class="st3" width="20.5" height="23.8"/>
				</g>
			</g>
			<g>
				<path class="st8" d="M71.6,35.3c-0.1,0-0.1-0.1-0.1-0.1v-7.6c0-0.1,0.1-0.1,0.1-0.1c0.1,0,0.1,0.1,0.1,0.1v7.6
					C71.8,35.2,71.7,35.3,71.6,35.3z"/>
				<path class="st5" d="M60,46.8l3.4-6c0.2-0.4,0.7-0.4,1-0.1l1.8,1.8l4.8-8.1c0.3-0.4,0.9-0.4,1.2,0l6.7,12.4H60z"/>
				<path class="st5" d="M71.7,31.8c-1.9,0-3.7-0.4-5.6-0.5c-0.2,0-0.3-0.1-0.3-0.3v-3.4c0-0.2,0.1-0.3,0.3-0.3
					c1.9,0,3.7,0.4,5.6,0.5c0.2,0,0.3,0.1,0.3,0.3v3.4C72,31.6,71.9,31.8,71.7,31.8z"/>
			</g>
		</g>
		<g>
			<rect x="82.9" y="59.1" class="st8" width="5.1" height="22.1"/>
			<polygon class="st6" points="85.7,81.2 87.9,81.2 87.9,77.5 85.7,77.5 			"/>
			<rect x="53.7" y="59.1" class="st8" width="5.1" height="22.1"/>
			<rect x="56.9" y="59.1" class="st6" width="31.1" height="20.9"/>
			<polygon class="st6" points="59,81.2 56.9,81.2 56.9,77.5 59.1,77.5 			"/>
			<path class="st4" d="M84.8,68.5H60c-0.8,0-1.5-0.7-1.5-1.5v-4.8c0-0.8,0.7-1.5,1.5-1.5h24.7c0.8,0,1.5,0.7,1.5,1.5V67
				C86.2,67.8,85.6,68.5,84.8,68.5z"/>
			<ellipse transform="matrix(0.9732 -0.2298 0.2298 0.9732 -12.621 20.2181)" class="st3" cx="80.5" cy="64.3" rx="2.1" ry="2.1"/>
			<path class="st4" d="M84.8,78.1H60c-0.8,0-1.5-0.7-1.5-1.5v-4.8c0-0.8,0.7-1.5,1.5-1.5h24.7c0.8,0,1.5,0.7,1.5,1.5v4.8
				C86.2,77.4,85.6,78.1,84.8,78.1z"/>
			<circle class="st3" cx="80.5" cy="73.9" r="2.1"/>
			
				<ellipse transform="matrix(0.9732 -0.2298 0.2298 0.9732 -13.0554 16.4879)" class="st3" cx="64.3" cy="64.3" rx="2.1" ry="2.1"/>
			<circle class="st3" cx="64.3" cy="73.9" r="2.1"/>
		</g>
	</g>
	<path class="st0" d="M75.4,49.2L66.2,56l4,0.5l-7.9,13.1l-11.3-2c-0.3,0-0.6,0-0.7,0.3l0,0l-9.4,10.9l-13-2.1c-0.3,0-0.6,0-0.8,0.2
		l0,0l-10.2,9.3l0,0c-0.4,0.4-0.4,1,0,1.4c0.4,0.4,1,0.4,1.4,0l9.7-9.1l13.1,2l0,0c0.3,0,0.6-0.1,0.8-0.3l9.3-11l11.4,1.9l0,0
		c0.3,0.1,0.6-0.1,0.8-0.4l8-13.6l2.4,3.3L75.4,49.2z"/>
	<g>
		<g>
			<path class="st9" d="M34.3,39.9l-0.1,0.1L34.1,40c-0.1,0-0.2,0.1-0.3,0.1c-0.2,0.1-0.4,0.2-0.5,0.3c-0.3,0.2-0.7,0.5-1,0.7
				c-0.3,0.3-0.7,0.5-1,0.8l-0.5,0.5l-0.2,0.2l-0.1,0.1c0,0,0,0,0,0c-0.1,0.1-0.2,0.4-0.1,0.8c0,0.4,0.1,0.8,0.2,1.2
				c0.2,0.8,0.6,1.6,1,2.4l-0.7,0.5c-0.6-0.8-1.1-1.5-1.5-2.4c-0.2-0.4-0.4-0.9-0.5-1.5c0-0.3-0.1-0.6,0-0.9c0-0.3,0.1-0.7,0.3-1
				c0-0.1,0.1-0.2,0.2-0.2l0.1-0.1l0.2-0.3c0.2-0.2,0.3-0.4,0.5-0.5c0.3-0.3,0.7-0.7,1-1c0.4-0.3,0.8-0.6,1.2-0.9
				c0.2-0.1,0.4-0.3,0.6-0.4c0.1-0.1,0.2-0.1,0.3-0.2l0.2-0.1c0.1,0,0.1-0.1,0.2-0.1L34.3,39.9z"/>
			<path class="st10" d="M37.1,32.8c0.1,1.1,0.2,3.4-0.6,4c0,0,0.1,1.1,2.1,1.3c2.1,0.3,1.2-0.9,1.2-0.9c-1.1-0.4-1-1.3-0.7-2.1
				L37.1,32.8z"/>
			<path class="st11" d="M36.1,37.3c0,0-0.2-0.6-0.3-1c-0.1-0.4,2.6-0.2,3.4,0c0.9,0.2,1.1,1.2,1.1,1.2L36.1,37.3z"/>
			<path class="st12" d="M41,32c0,0,0.3,0.6,0.6,0.9c-0.2,0.2-0.5,0.1-0.5,0.1L41,32z"/>
			<path class="st0" d="M40.4,31.1C40.4,31.1,40.4,31.1,40.4,31.1c-0.1,0-0.1-0.1-0.1-0.1c0.2-0.4,0.6-0.5,0.6-0.5
				c0,0,0.1,0,0.1,0.1c0,0,0,0.1-0.1,0.1l0,0C40.9,30.7,40.6,30.7,40.4,31.1C40.5,31.1,40.4,31.1,40.4,31.1z"/>
			<path class="st0" d="M40.9,31.8c0,0.1,0.1,0.2,0.2,0.2c0.1,0,0.2-0.1,0.1-0.3s-0.1-0.2-0.2-0.2C40.9,31.5,40.8,31.6,40.9,31.8z"
				/>
			<path class="st0" d="M41,31.5l0.3-0.1C41.3,31.4,41.1,31.7,41,31.5z"/>
			<polygon class="st9" points="27.4,76.3 29.1,76.8 30.7,73 29,72.5 			"/>
			<path class="st0" d="M29.7,75.5l-2-0.3c-0.1,0-0.1,0-0.2,0.1l-0.5,1.5c0,0.2,0.1,0.3,0.2,0.4c0.7,0.1,1,0.1,1.9,0.2
				c0.5,0.1,1.3,0.3,2,0.4c0.7,0.1,0.9-0.6,0.6-0.7c-1.3-0.5-1.5-1-1.9-1.4C29.9,75.6,29.8,75.5,29.7,75.5z"/>
			<path class="st1" d="M35.1,37.1c-0.7-0.3-2.8,1.5-2.8,1.5l0.9,3.3c0,0,2.4-1.4,2.6-2.3C36.1,38.5,36,37.4,35.1,37.1z"/>
			<path class="st11" d="M43,38.8c0,1.1,0,3.2-0.7,7c-0.1,0.7,0.1,1,0,1.7c-0.1,0.5-0.3,0.4-0.4,0.6h-7.2c0-0.2-0.3-0.3-0.4-0.8
				c-0.2-1.1,0.4-1.1,0.4-1.8c0-1.7-0.3-3.6-1-6.9c-0.2-0.7,0.3-1.4,1-1.5c0.5-0.1,1.1-0.1,1.8-0.2c1.2-0.1,2.2-0.1,3.3,0
				c0.6,0.1,1.3,0.2,1.9,0.2C42.4,37.3,43,38,43,38.8z"/>
			<path class="st13" d="M41,39.7c0.3,0.8,1.3,1.9,1.8,2.4c0.1-0.7,0.1-1.4,0.1-1.9L41,39.7z"/>
			<path class="st9" d="M43.2,38.2c0.6,0.6,1.2,1.2,1.9,1.8c0.6,0.6,1.3,1.1,2,1.5c0.1,0.1,0.2,0.1,0.3,0.1l0.1,0.1c0,0,0,0,0,0
				c0,0,0,0,0,0c0,0,0,0,0,0c-0.1,0,0.1,0,0.2,0c0.3-0.1,0.6-0.3,1-0.5c0.7-0.5,1.3-1.1,2-1.6l0.7,0.6c-0.5,0.8-1.1,1.5-1.8,2.1
				c-0.4,0.3-0.7,0.6-1.3,0.9c-0.1,0.1-0.3,0.1-0.5,0.2c-0.2,0-0.4,0.1-0.6,0c-0.1,0-0.1,0-0.2,0c0,0-0.1,0-0.1,0c0,0-0.1,0-0.1,0
				l-0.2-0.1c-0.1-0.1-0.2-0.1-0.3-0.2c-0.9-0.5-1.6-1-2.3-1.6c-0.7-0.6-1.4-1.2-2-1.9L43.2,38.2z"/>
			<path class="st9" d="M51,38.9c-0.3,0.2-0.6,0.6-0.8,0.9l0.2,0.7c0,0.1,0.1,0.1,0.2,0.1l1.1-0.5l0.4-0.2c0.1-0.1,0.2-0.2,0.1-0.3
				L52.2,39c0-0.1-0.1-0.2-0.3-0.2l-0.7,0C51.2,38.8,51.1,38.9,51,38.9z"/>
			<path class="st9" d="M31.8,47.9c0,0.3-0.2,0.8-0.4,1.1l-0.7,0.2c-0.1,0-0.1,0-0.1-0.1l-0.1-1.2l0-0.6c0,0,0-0.1,0.1-0.1l0.7-0.3
				c0.1,0,0.1,0,0.1,0l0.4,0.7C31.7,47.7,31.8,47.8,31.8,47.9z"/>
			<g>
				<path class="st14" d="M24.5,53.8l7.2,0.8c0.3,0,0.7-0.2,0.8-0.5l1.5-4.2c0.1-0.3-0.1-0.6-0.4-0.7l-7.2-0.8
					c-0.3,0-0.7,0.2-0.8,0.5l-1.5,4.2C24,53.4,24.2,53.7,24.5,53.8z"/>
				<g>
					<path class="st14" d="M25.4,55.2l8.8,1c0.4,0,0.8-0.2,0.9-0.7l0.9-5.4c0.1-0.4-0.2-0.8-0.6-0.8l-8.8-1c-0.4,0-0.8,0.2-0.9,0.7
						l-0.9,5.4C24.7,54.8,25,55.2,25.4,55.2z"/>
					<path class="st15" d="M25.4,55.2l8.8,1c0.4,0,0.8-0.2,0.9-0.7l0.9-5.4c0.1-0.4-0.2-0.8-0.6-0.8l-8.8-1c-0.4,0-0.8,0.2-0.9,0.7
						l-0.9,5.4C24.7,54.8,25,55.2,25.4,55.2z"/>
					<path class="st14" d="M32.3,50.5C32.3,50.5,32.2,50.5,32.3,50.5l-2.6-0.3h0c-0.1,0-0.2-0.1-0.3-0.2c-0.1-0.1-0.1-0.2-0.1-0.3
						l0.2-1.2c0.1-0.4,0.5-0.8,0.9-0.7l1.7,0.2c0.2,0,0.4,0.1,0.6,0.3c0.1,0.2,0.2,0.4,0.2,0.6l-0.2,1.1
						C32.7,50.4,32.5,50.5,32.3,50.5z M29.7,49.8l2.6,0.3c0,0,0,0,0,0l0.2-1.1c0-0.1,0-0.2-0.1-0.3c-0.1-0.1-0.2-0.2-0.3-0.2
						l-1.7-0.2c-0.2,0-0.5,0.1-0.5,0.4L29.7,49.8l0,0.2L29.7,49.8z"/>
				</g>
				<path class="st14" d="M35.1,56.4l-8.8-1c-0.4,0-0.7-0.4-0.7-0.8l0.3-5.4c0-0.4,0.4-0.7,0.8-0.7l8.8,1c0.4,0,0.7,0.4,0.7,0.8
					l-0.3,5.4C35.9,56.1,35.5,56.4,35.1,56.4z"/>
			</g>
			<path class="st16" d="M41.8,37.2c1.4,0.3,2.8,1.7,2.8,1.7l-1.2,3c0,0-2.8-1.7-3.1-2.7C40,38,40.5,36.9,41.8,37.2z"/>
			<path class="st9" d="M36,31.8c0.3,1.7,0.4,2.5,1.3,3.3c1.5,1.2,3.5,0.5,3.8-1.3c0.2-1.6-0.3-4.2-2.1-4.7
				C37.3,28.6,35.8,30.1,36,31.8z"/>
			<path class="st0" d="M40.3,29.2c-1.1-0.1-3.2-1.8-4.4-0.1c-1.1,1.6-1.6,1.8-3.3,2.4c-2.8,1.1-1.2,2.2-2.4,3.9
				c-1.2,1.7-3.2,1.2-3.5,3.5c-0.4,3.5,5.7,7.8,9.3,3.9c3.6-4,1.2-5.3,2.9-6.4c2.1-1.4,1.6-3.8,0.8-4.2
				C40.7,31.4,41.8,29.4,40.3,29.2z"/>
			<path class="st9" d="M40.5,31.8c0.3,0.3,0.4,0.7,0.4,1c0,0.4-0.4,0.5-0.8,0.2c-0.3-0.3-0.7-0.8-0.6-1.2
				C39.7,31.5,40.2,31.5,40.5,31.8z"/>
			<path class="st17" d="M40.1,48.1c0,0-0.7,10.6-3.4,16c-1.1,2.2-6.2,10.4-6.2,10.4L28,74c0,0,3.6-8.9,5.8-11
				c0.2-5.9-1.5-12.1,1-15H40.1z"/>
			<path class="st18" d="M37.7,50.9c-0.1,2.7,0.3,5.3,0.9,7.4c0.4-1.7,0.7-3.4,0.9-5C39,52.5,38.3,51.6,37.7,50.9z"/>
			<polygon class="st18" points="30.6,74.8 27.7,74 28,73 31.2,73.7 			"/>
			<polygon class="st9" points="50.5,66.9 52.3,67.2 51.9,63.1 50.1,62.8 			"/>
			<path class="st0" d="M52.3,65.9l-2-0.3c-0.1,0-0.1,0-0.2,0.1l-0.5,1.5c0,0.2,0.1,0.3,0.2,0.4c0.7,0.1,1,0.1,1.9,0.2
				c0.5,0.1,1.3,0.3,2,0.4c0.7,0.1,0.9-0.6,0.6-0.7c-1.3-0.5-1.5-0.9-1.9-1.4C52.5,66,52.4,66,52.3,65.9z"/>
			<path class="st17" d="M42,48.1c0,0,11.8,2,11.4,5.5c-0.7,5.5-1,10.6-1,10.6L50,63.9c0,0-1-5.4-0.3-9c-2.8-1.3-14.5,3.6-13-6.8H42
				z"/>
			<polygon class="st18" points="52.5,64.7 49.5,64.3 49.5,63.2 52.7,63.5 			"/>
			<path class="st11" d="M34.7,47.6l-0.3,0.6c0,0,0,0.1,0.1,0.1H42c0.1,0,0.1,0,0.1-0.1l0.1-0.6c0,0-0.1-0.1-0.1-0.1h-7.3
				C34.7,47.6,34.7,47.6,34.7,47.6z"/>
			<path class="st0" d="M35.6,48.5h-0.2c0,0-0.1,0-0.1,0l0.1-0.8c0,0,0,0,0.1,0h0.2c0,0,0.1,0,0.1,0L35.6,48.5
				C35.7,48.4,35.7,48.5,35.6,48.5z"/>
			<path class="st0" d="M40.4,48.5h-0.2c0,0-0.1,0-0.1,0l0.1-0.8c0,0,0,0,0.1,0h0.2c0,0,0.1,0,0.1,0L40.4,48.5
				C40.4,48.4,40.4,48.5,40.4,48.5z"/>
			<path class="st3" d="M41.1,38.7c0,0,0.1,0,0.2,0c0.1,0,0.1,0,0.2,0c0,0,0,0,0,0c0,0,0,0,0,0c0,0-0.1-0.1-0.1-0.1
				c0,0-0.1-0.1-0.1-0.1c0,0-0.1,0-0.1,0.1C41.1,38.6,41.1,38.7,41.1,38.7C41.1,38.7,41.1,38.7,41.1,38.7
				C41.1,38.7,41.1,38.7,41.1,38.7z M41.6,38.9C41.6,38.9,41.6,38.9,41.6,38.9C41.6,38.9,41.6,38.9,41.6,38.9c0,0-0.1,0-0.2-0.1
				c-0.1-0.1-0.1-0.1-0.1-0.1c-0.1,0-0.1,0-0.2,0.1c0,0,0.1,0.1,0.2,0.1C41.4,38.9,41.5,38.9,41.6,38.9z M41.5,38.5
				c0.1,0,0.1,0.1,0.1,0.1c0,0,0,0.1,0,0.1c0,0,0,0,0,0c0,0,0-0.1,0.1-0.2c0-0.1,0-0.2,0-0.2c0,0,0,0,0,0c0,0-0.1,0-0.2,0
				c-0.1,0-0.1,0.1-0.2,0.1c0,0,0,0,0,0C41.3,38.4,41.4,38.4,41.5,38.5z M42.2,38.5c0.1,0,0.1-0.1,0.2-0.1c0-0.1,0-0.1,0-0.2
				c0-0.1-0.1-0.1-0.1-0.1c0,0,0,0-0.1,0c0,0,0,0,0,0c0,0.1,0,0.1,0,0.2C42.2,38.3,42.2,38.4,42.2,38.5z M42.2,39l0.1-0.1l0,0
				L42.2,39C42.2,38.9,42.2,38.9,42.2,39L42.2,39c-0.1-0.1-0.1-0.1-0.1-0.1l0.1-0.1l0,0l-0.1,0.1c0,0,0,0.1,0,0.1L42.2,39
				C42.1,39,42.2,39,42.2,39z M42.2,39L42.2,39l-0.1,0.1c0,0,0,0,0,0l0,0L42.2,39L42.2,39L42,39.1l0,0c0,0,0,0,0,0l0.1-0.1l0,0
				L41.9,39c0,0,0,0.1,0,0.1l0,0c0,0,0.1,0,0.1,0L42.2,39z M42.5,38.6l-0.1-0.1l0-0.1l0,0l-0.1,0.2l0,0l0-0.1L42.5,38.6L42.5,38.6z
				 M42.4,38.4L42.4,38.4l0-0.1L42.4,38.4C42.4,38.4,42.4,38.5,42.4,38.4l0,0.1c0,0,0.1,0,0.1,0l0.1-0.1l0,0L42.4,38.4
				C42.5,38.5,42.5,38.5,42.4,38.4L42.4,38.4l0.1-0.1L42.4,38.4L42.4,38.4L42.4,38.4C42.4,38.4,42.4,38.4,42.4,38.4z M42.3,38.7
				L42.3,38.7L42.3,38.7l-0.1,0.1L42.3,38.7l0.1,0.1L42.3,38.7L42.3,38.7L42.3,38.7L42.3,38.7z M42,39.3l0.1-0.1l0,0L42,39.3
				C41.9,39.3,41.9,39.3,42,39.3L42,39.3c-0.1-0.1-0.1-0.1-0.1-0.1l0.1-0.1l0,0l-0.1,0.1c0,0,0,0.1,0,0.1L42,39.3
				C41.9,39.3,41.9,39.3,42,39.3z M42,38.2C42,38.2,42,38.2,42,38.2C42,38.2,42,38.2,42,38.2C42,38.2,42,38.2,42,38.2
				C42,38.1,41.9,38.1,42,38.2C41.9,38.2,41.9,38.2,42,38.2C41.9,38.2,41.9,38.2,42,38.2C41.9,38.2,41.9,38.2,42,38.2
				C41.9,38.2,41.9,38.2,42,38.2C41.9,38.2,42,38.2,42,38.2C42,38.2,42,38.2,42,38.2C42,38.2,42,38.2,42,38.2z M41.6,38.6
				C41.6,38.7,41.6,38.7,41.6,38.6C41.6,38.7,41.6,38.7,41.6,38.6c0.1,0,0.2,0,0.3-0.1c0,0,0-0.1,0-0.1c0,0,0-0.1,0-0.1
				c0,0,0,0-0.1,0c-0.1,0-0.1-0.1-0.1-0.1c0,0,0,0,0,0c0,0,0,0,0,0c0,0,0,0.1,0,0.2C41.7,38.5,41.7,38.6,41.6,38.6z M42.1,38.4
				C42.1,38.4,42.1,38.4,42.1,38.4C42,38.4,42,38.4,42.1,38.4C42,38.4,42,38.4,42.1,38.4C42,38.5,42,38.5,42,38.5
				C42,38.5,42,38.5,42.1,38.4C42.1,38.4,42.1,38.4,42.1,38.4z M41.8,38.7C41.8,38.7,41.8,38.7,41.8,38.7c0.1,0,0.1,0,0.1,0
				c0,0,0-0.1,0-0.1C41.9,38.6,41.8,38.6,41.8,38.7C41.8,38.7,41.8,38.7,41.8,38.7z M41.9,38.7c0,0,0.1,0,0.1,0c0,0,0.1,0,0.1-0.1
				c0,0,0,0,0-0.1c0,0,0-0.1,0-0.2c0,0,0-0.1,0-0.1c0,0,0,0,0,0c0,0-0.1,0.1-0.1,0.2c0,0,0,0-0.1,0.1C42,38.6,41.9,38.6,41.9,38.7z
				 M42,38.5c0-0.1,0-0.2,0-0.2c0,0,0,0,0,0c0,0,0,0,0,0c0,0,0,0,0,0c0,0,0,0,0,0C42,38.3,41.9,38.4,42,38.5
				c-0.1,0.3-0.1,0.4-0.2,0.4c0,0-0.1-0.1-0.1-0.2c0,0,0,0,0,0c0,0.2,0,0.3,0.1,0.3C41.8,39,41.9,38.7,42,38.5z M41.9,38.1
				C41.9,38.1,41.9,38.1,41.9,38.1C42,38.1,42,38.1,41.9,38.1C42,38,41.9,38,41.9,38.1c0-0.1-0.1,0-0.1,0.2c0,0,0,0,0,0
				C41.8,38.1,41.9,38,41.9,38.1z"/>
		</g>
	</g>
</g>
</svg>
