<?xml version="1.0" encoding="utf-8"?>
<!-- Generator: Adobe Illustrator 24.2.0, SVG Export Plug-In . SVG Version: 6.00 Build 0)  -->
<svg version="1.1" id="bold" xmlns="http://www.w3.org/2000/svg" xmlns:xlink="http://www.w3.org/1999/xlink" x="0px" y="0px"
	 viewBox="0 0 512 512" style="enable-background:new 0 0 512 512;" xml:space="preserve">
<style type="text/css">
	.st0{fill:#00CAC0;}
	.st1{display:none;fill:#00CAC0;}
	.st2{fill:#75C6BE;}
</style>
<path class="st0" d="M303.7,101.4l-11.1-14.6l11.1-14.6c2.4-3.2,1.8-7.7-1.4-10.1c-1.3-1-2.8-1.5-4.4-1.5h-56.8
	c-4,0-7.3,3.2-7.4,7.2v64.1h14.4V113h49.7c4,0,7.2-3.3,7.2-7.2C305.2,104.2,304.7,102.6,303.7,101.4z"/>
<path class="st0" d="M75.9,287.9c-5.9,0-10.7,4.7-10.7,10.6v0.1v140.8h91.1V287.9H75.9z M99.5,399.8c0,4-3.2,7.2-7.2,7.2
	s-7.2-3.2-7.2-7.2v-15.5c0-4,3.2-7.2,7.2-7.2s7.2,3.2,7.2,7.2V399.8z M99.5,339.4c0,4-3.2,7.2-7.2,7.2s-7.2-3.2-7.2-7.2v-15.5
	c0-4,3.2-7.2,7.2-7.2s7.2,3.2,7.2,7.2V339.4z M136.4,399.8c0,4-3.2,7.2-7.2,7.2s-7.2-3.2-7.2-7.2v-15.5c0-4,3.2-7.2,7.2-7.2
	s7.2,3.2,7.2,7.2V399.8z M136.4,339.4c0,4-3.2,7.2-7.2,7.2s-7.2-3.2-7.2-7.2v-15.5c0-4,3.2-7.2,7.2-7.2s7.2,3.2,7.2,7.2V339.4z"/>
<path class="st0" d="M239.9,187.4l-69.2,58.8v193.2h31.6v-75.1c-0.1-3.7,2.9-6.8,6.6-6.9c0.1,0,0.2,0,0.4,0h62
	c3.7-0.1,6.7,2.8,6.8,6.5c0,0.2,0,0.3,0,0.5v75.1h30.7V246.2L239.9,187.4z M271.2,316.8h-62.4c-4,0-7.2-3.2-7.2-7.2s3.2-7.2,7.2-7.2
	h62.4c4,0,7.2,3.2,7.2,7.2C278.4,313.6,275.2,316.8,271.2,316.8z"/>
<path class="st1" d="M365.2,294.3h-0.1H282v151.5h93.8V305.2C375.8,299.3,371.1,294.5,365.2,294.3z M319,406.3c0,4-3.2,7.2-7.2,7.2
	s-7.2-3.2-7.2-7.2v-15.5c0-4,3.2-7.2,7.2-7.2s7.2,3.2,7.2,7.2V406.3z M319,345.8c0,4-3.2,7.2-7.2,7.2s-7.2-3.2-7.2-7.2v-15.5
	c0-4,3.2-7.2,7.2-7.2s7.2,3.2,7.2,7.2V345.8z M355,406.3c0,4-3.2,7.2-7.2,7.2s-7.2-3.2-7.2-7.2v-15.5c0-4,3.2-7.2,7.2-7.2
	s7.2,3.2,7.2,7.2V406.3z M355,345.8c0,4-3.2,7.2-7.2,7.2s-7.2-3.2-7.2-7.2v-15.5c0-4,3.2-7.2,7.2-7.2s7.2,3.2,7.2,7.2V345.8z"/>
<path class="st0" d="M240.2,141.7L137,230.1l13,15.2l85.5-72.9c2.7-2.3,6.7-2.3,9.4,0l85.2,72.9l13.3-15.3L240.2,141.7z"/>
<rect x="216.7" y="371.8" class="st0" width="46.9" height="67.6"/>
<path class="st0" d="M357.4,340.2l-12.5-12.5c-19.8-19.8-19.8-51.9,0-71.7l41.5-41.5l-18.3-18.3c-2.3-2.3-3-5.7-1.7-8.7
	c1.2-3,4.1-4.9,7.4-4.9h69.3c4.4,0,8,3.6,8,8v69.3c0,3.2-2,6.1-4.9,7.4c-3,1.2-6.4,0.6-8.7-1.7l-18.3-18.4l-50.3,50.3
	c-8.6,8.6-8.6,22.7,0,31.4c3.1,3.1,3.1,8.2,0,11.3C365.6,343.3,360.6,343.3,357.4,340.2z"/>
<path class="st2" d="M400.4,438.5h-69.3c-4.4,0-8-3.6-8-8v-69.3c0-3.2,2-6.1,4.9-7.4c3-1.2,6.4-0.6,8.7,1.7l18.3,18.4l50.3-50.4
	c8.6-8.6,8.6-22.7,0-31.4c-3.1-3.1-3.1-8.2,0-11.3s8.2-3.1,11.3,0l12.5,12.5c19.8,19.8,19.8,51.9,0,71.7l-41.5,41.5l18.3,18.3
	c2.3,2.3,3,5.7,1.7,8.7S403.7,438.5,400.4,438.5z"/>
</svg>
