<svg width="100" height="100" xmlns="http://www.w3.org/2000/svg" class="loading">
	<defs>
   	<style>
      	@keyframes loading {
            to {
            	transform: rotate(2turn);
            }
         }
         .loader-group {
            transform-origin: 50% 50%;
            animation: loading 2s infinite;
         }
         @keyframes loader-1 {
            0% {
               opacity: 0;
            }
            25% {
               opacity: 1;
            }
      	}
         @keyframes loader-2 {
            0%, 25% {
               opacity: 0;
            }
            50% {
               opacity: 1;
            }
			}
			@keyframes loader-3 {
            0%, 50% {
               opacity: 0;
            }
            75% {
               opacity: 1;
            }
         }
         .loader-1 {
            animation: loader-1 2s infinite;
         }
         .loader-2 {
            animation: loader-2 2s infinite;
			}
			.loader-3 {
         	animation: loader-3 2s infinite;
			}
			.loader-4 {
         	animation: loader-4 2s infinite;
			}
			.loader-5 {
         	animation: loader-5 2s infinite;
			}
			.loader-6 {
         	animation: loader-6 2s infinite;
         }
	</style>
 	</defs>
	<g class="loader-group">
		<path d="M83.6,16.4l-7.5,7.5C82.9,30.6,87,39.8,87,50h10.6C97.6,36.9,92.2,25,83.6,16.4z" fill="#F7BC35" class="loader-2"/>
		<path d="M50,87v10.6c26.2,0,47.6-21.3,47.6-47.6H87C87,70.4,70.4,87,50,87z" fill="#FA7268" class="loader-3"/>
		<path d="M13,50H2.4c0,13.1,5.3,25,14,33.6l7.5-7.5C17.1,69.4,13,60.2,13,50z" fill="#FFF200" class="loader-5"/>
		<path d="M50,13V2.4C23.8,2.4,2.4,23.8,2.4,50H13C13,29.6,29.6,13,50,13z" fill="#FF61B7" class="loader-6"/>
		<path d="M23.8,76.2l-7.5,7.5c8.6,8.6,20.5,14,33.6,14V87C39.8,87,30.6,82.9,23.8,76.2z" fill="#00CAC0" class="loader-4"/>
		<path d="M76.2,23.8l7.5-7.5C75,7.8,63.1,2.4,50,2.4V13C60.2,13,69.4,17.1,76.2,23.8z" fill="#A63496" class="loader-1"/>
	</g>
   <g>
      <path fill="#00CAC0" d="M70.2,50.3l-1.3-3.8L54.3,60.9c-1.4,1.4-3.3,2.2-5.3,2.2c-2,0-3.9-0.8-5.3-2.2L33.1,50.3
         c-1.4-1.4-2.2-3.3-2.2-5.3s0.8-3.9,2.2-5.3c1.4-1.4,3.3-2.2,5.3-2.2c2,0,3.9,0.8,5.3,2.2L49,45l14.3-14.3l-1-2.7l-0.4-2.6
         c-0.3-1.7-1.4-3.1-3-3.8c-1.6-0.7-3.4-0.5-4.8,0.5l-7,5l-7-5c-1.4-1-3.2-1.2-4.8-0.5c-1.6,0.7-2.7,2.1-3,3.7L31,33.8l-8.5,1.4
         c-1.7,0.3-3.1,1.4-3.8,3c-0.7,1.6-0.5,3.4,0.5,4.8l5,7l-5,7c-1,1.4-1.2,3.2-0.5,4.8c0.7,1.6,2.1,2.7,3.7,3l8.5,1.4l1.4,8.5
         c0.3,1.7,1.4,3.1,3,3.8c1.6,0.7,3.4,0.5,4.8-0.5l7-5l7,5c0.9,0.6,1.9,0.9,2.9,0.9c0.6,0,1.3-0.1,1.9-0.4c1.6-0.7,2.7-2.1,3-3.8
         l1.4-8.5l8.5-1.4c1.7-0.3,3.1-1.4,3.8-3c0.7-1.6,0.5-3.4-0.5-4.8L70.2,50.3z"/>
      <path fill="#83CEC8" d="M49,58.1c-0.6,0-1.3-0.2-1.8-0.7L36.6,46.8c-1-1-1-2.6,0-3.5c1-1,2.6-1,3.5,0l8.9,8.9L74.2,27c1-1,2.6-1,3.5,0
         c1,1,1,2.6,0,3.5L50.8,57.4C50.3,57.9,49.7,58.1,49,58.1z"/>
   </g>
</svg>