<svg width="100" height="100" xmlns="http://www.w3.org/2000/svg" class="loading">
	<defs>
   	<style>
      	@keyframes loading {
            to {
            	transform: rotate(2turn);
            }
         }
         .loader-group {
            transform-origin: 50% 50%;
            animation: loading 2s infinite;
         }
         @keyframes loader-1 {
            0% {
               opacity: 0;
            }
            25% {
               opacity: 1;
            }
      	}
         @keyframes loader-2 {
            0%, 25% {
               opacity: 0;
            }
            50% {
               opacity: 1;
            }
			}
			@keyframes loader-3 {
            0%, 50% {
               opacity: 0;
            }
            75% {
               opacity: 1;
            }
         }
         .loader-1 {
            animation: loader-1 2s infinite;
         }
         .loader-2 {
            animation: loader-2 2s infinite;
			}
			.loader-3 {
         	animation: loader-3 2s infinite;
			}
			.loader-4 {
         	animation: loader-4 2s infinite;
			}
			.loader-5 {
         	animation: loader-5 2s infinite;
			}
			.loader-6 {
         	animation: loader-6 2s infinite;
         }
	</style>
 	</defs>
	<g class="loader-group">
		<path d="M83.6,16.4l-7.5,7.5C82.9,30.6,87,39.8,87,50h10.6C97.6,36.9,92.2,25,83.6,16.4z" fill="#F7BC35" class="loader-2"/>
		<path d="M50,87v10.6c26.2,0,47.6-21.3,47.6-47.6H87C87,70.4,70.4,87,50,87z" fill="#FA7268" class="loader-3"/>
		<path d="M13,50H2.4c0,13.1,5.3,25,14,33.6l7.5-7.5C17.1,69.4,13,60.2,13,50z" fill="#FFF200" class="loader-5"/>
		<path d="M50,13V2.4C23.8,2.4,2.4,23.8,2.4,50H13C13,29.6,29.6,13,50,13z" fill="#FF61B7" class="loader-6"/>
		<path d="M23.8,76.2l-7.5,7.5c8.6,8.6,20.5,14,33.6,14V87C39.8,87,30.6,82.9,23.8,76.2z" fill="#00CAC0" class="loader-4"/>
		<path d="M76.2,23.8l7.5-7.5C75,7.8,63.1,2.4,50,2.4V13C60.2,13,69.4,17.1,76.2,23.8z" fill="#A63496" class="loader-1"/>
	</g>
   <g>
      <path fill="#E24C4B" d="M80.3,63.1L55.8,19.6c-2.1-3.8-7.8-3.8-9.9,0L21.4,63.1c-2.1,3.8,0.6,8.5,4.9,8.5h48.8
         C79.7,71.4,82.3,66.9,80.3,63.1z"/>
      <path fill="#E24C4B" d="M50.8,22.4l24.5,43.5h-49L50.8,22.4L50.8,22.4z"/>
      <g>
         <path fill="#FFFFFF" d="M46.8,42.4l1.5,10.1c0.2,1.1,1.1,2.1,2.5,2.1l0,0c1.1,0,2.3-0.9,2.5-2.1l1.5-10.1c0.4-2.5-1.5-4.6-4-4.6l0,0
            C48.3,37.8,46.6,39.9,46.8,42.4z"/>
         <circle fill="#FFFFFF" cx="50.8" cy="58.9" r="2.3"/>
      </g>
   </g>
</svg>